M48
METRIC,LZ,000.000
;FILE_FORMAT=3:3
;TYPE=PLATED
;Layer: PTH_Through
;EasyEDA v6.5.54, 2026-09-28 19:29:52
;fa649360aa944b6bb8677e8924a5ad4c,fdeac84f5221418fb8db622358c4ba40,10
;Gerber Generator version 0.2
;Holesize 1 = 0.889 mm
T01C0.889
;Holesize 2 = 0.901 mm
T02C0.901
;Holesize 3 = 0.914 mm
T03C0.914
;Holesize 4 = 0.915 mm
T04C0.915
;Holesize 5 = 1.000 mm
T05C1.000
;Holesize 6 = 1.101 mm
T06C1.101
;Holesize 7 = 1.200 mm
T07C1.200
%
G05
G90
T01
X085725Y019431
X088265Y019431
X090805Y019431
X093345Y019431
X078359Y023114
X078359Y025654
X078359Y028194
X078359Y030734
X078359Y033274
X075692Y023114
X075692Y025654
X075692Y028194
X075692Y030734
X075692Y033274
X072898Y023114
X072898Y025654
X072898Y028194
X072898Y030734
X072898Y033274
X061214Y079121
X058674Y079121
T02
X043053Y062738
X043053Y060198
X043053Y057658
X043053Y065278
X043053Y067818
X021209Y065278
X021209Y060198
X021209Y070358
X021209Y055118
T03
X067564Y030099
T04
X092710Y081153
X092710Y078613
X092710Y076073
X092710Y073533
X092710Y070993
X092710Y068453
X092710Y065913
X092710Y063373
X092710Y060833
X092710Y058293
X092710Y055753
X092710Y053213
X092710Y050673
X092710Y048133
X092710Y045593
X092710Y043053
X092710Y040513
X092710Y037973
X092710Y035433
X092710Y032893
X092710Y030353
X092710Y027813
X118237Y027813
X118237Y030353
X118237Y032893
X118237Y035433
X118237Y037973
X118237Y040513
X118237Y043053
X118237Y045593
X118237Y048133
X118237Y050673
X118237Y053213
X118237Y055753
X118237Y058293
X118237Y060833
X118237Y063373
X118237Y065913
X118237Y068453
X118237Y070993
X118237Y073533
X118237Y076073
X118237Y078613
X118237Y081153
X020320Y081407
X020320Y078867
X020320Y076327
X067564Y032585
X067564Y035070
X067564Y037556
X067564Y040132
X067564Y042527
X067564Y045012
X067564Y047498
X056134Y079121
X029591Y047244
X032131Y047244
X034674Y047244
X037211Y047244
X058674Y068199
X058674Y074422
X078359Y020066
X083947Y017526
T05
X081153Y060452G85X081153Y060452
X078613Y060452G85X078613Y060452
X076073Y060452G85X076073Y060452
X073533Y060452G85X073533Y060452
X078613Y085217G85X078613Y085217
X076073Y085217G85X076073Y085217
T06
X050077Y060960
X055077Y060960
X074549Y019812
X074549Y014605
T07
X125730Y080264
X125730Y077724
X125730Y075184
X125730Y072644
X125730Y070104
X125730Y067564
X125730Y065024
X125730Y062484
X125730Y059944
X125730Y057404
X125730Y054864
X125730Y052324
X125730Y049784
X125730Y047244
X125730Y044704
X125730Y042164
X125730Y039624
X125730Y037084
X125730Y034544
X125730Y032004
X125730Y029464
X125730Y026924
M30
