G04 Layer: TopSolderMaskLayer*
G04 EasyEDA v6.5.54, 2026-09-28 19:29:52*
G04 fa649360aa944b6bb8677e8924a5ad4c,fdeac84f5221418fb8db622358c4ba40,10*
G04 Gerber Generator version 0.2*
G04 Scale: 100 percent, Rotated: No, Reflected: No *
G04 Dimensions in millimeters *
G04 leading zeros omitted , absolute positions ,4 integer and 5 decimal *
%FSLAX45Y45*%
%MOMM*%

%AMMACRO1*4,1,8,-0.8085,-0.8382,-0.8382,-0.8082,-0.8382,0.8085,-0.8085,0.8382,0.8082,0.8382,0.8382,0.8085,0.8382,-0.8082,0.8082,-0.8382,-0.8085,-0.8382,0*%
%AMMACRO2*4,1,8,-0.7751,-0.8048,-0.8048,-0.7748,-0.8048,0.7751,-0.7751,0.8048,0.7748,0.8048,0.8048,0.7751,0.8048,-0.7748,0.7748,-0.8048,-0.7751,-0.8048,0*%
%AMMACRO3*4,1,8,-0.7831,-0.8128,-0.8128,-0.7828,-0.8128,0.7831,-0.7831,0.8128,0.7828,0.8128,0.8128,0.7831,0.8128,-0.7828,0.7828,-0.8128,-0.7831,-0.8128,0*%
%AMMACRO4*4,1,8,-0.9101,-0.9398,-0.9398,-0.9098,-0.9398,0.9101,-0.9101,0.9398,0.9098,0.9398,0.9398,0.9101,0.9398,-0.9098,0.9098,-0.9398,-0.9101,-0.9398,0*%
%AMMACRO5*4,1,8,-0.921,-0.9507,-0.9507,-0.9207,-0.9507,0.921,-0.921,0.9507,0.9207,0.9507,0.9507,0.921,0.9507,-0.9207,0.9207,-0.9507,-0.921,-0.9507,0*%
%ADD10C,1.9016*%
%ADD11MACRO1*%
%ADD12C,1.6764*%
%ADD13MACRO2*%
%ADD14C,1.6096*%
%ADD15MACRO3*%
%ADD16C,1.6256*%
%ADD17C,0.0145*%
%ADD18MACRO4*%
%ADD19C,1.8796*%
%ADD20O,2.101596X1.701597*%
%ADD21O,3.101594X2.101596*%
%ADD22C,1.6260*%
%ADD23MACRO5*%
%ADD24C,1.6240*%
%ADD25C,1.8016*%

%LPD*%
D10*
G01*
X5007660Y6096000D03*
G01*
X5507659Y6096000D03*
D11*
G01*
X8572500Y1943100D03*
D12*
G01*
X8826500Y1943100D03*
G01*
X9080500Y1943100D03*
G01*
X9334500Y1943100D03*
D13*
G01*
X8115312Y6045187D03*
D14*
G01*
X7861300Y6045200D03*
G01*
X7607300Y6045200D03*
G01*
X7353300Y6045200D03*
D13*
G01*
X7861312Y8521687D03*
D14*
G01*
X7607300Y8521700D03*
D15*
G01*
X9271000Y8115300D03*
D16*
G01*
X9271000Y7861300D03*
G01*
X9271000Y7607300D03*
G01*
X9271000Y7353300D03*
G01*
X9271000Y7099300D03*
G01*
X9271000Y6845300D03*
G01*
X9271000Y6591300D03*
G01*
X9271000Y6337300D03*
G01*
X9271000Y6083300D03*
G01*
X9271000Y5829300D03*
G01*
X9271000Y5575300D03*
G01*
X9271000Y5321300D03*
G01*
X9271000Y5067300D03*
G01*
X9271000Y4813300D03*
G01*
X9271000Y4559300D03*
G01*
X9271000Y4305300D03*
G01*
X9271000Y4051300D03*
G01*
X9271000Y3797300D03*
G01*
X9271000Y3543300D03*
G01*
X9271000Y3289300D03*
G01*
X9271000Y3035300D03*
G01*
X9271000Y2781300D03*
G01*
X11823700Y2781300D03*
G01*
X11823700Y3035300D03*
G01*
X11823700Y3289300D03*
G01*
X11823700Y3543300D03*
G01*
X11823700Y3797300D03*
G01*
X11823700Y4051300D03*
G01*
X11823700Y4305300D03*
G01*
X11823700Y4559300D03*
G01*
X11823700Y4813300D03*
G01*
X11823700Y5067300D03*
G01*
X11823700Y5321300D03*
G01*
X11823700Y5575300D03*
G01*
X11823700Y5829300D03*
G01*
X11823700Y6083300D03*
G01*
X11823700Y6337300D03*
G01*
X11823700Y6591300D03*
G01*
X11823700Y6845300D03*
G01*
X11823700Y7099300D03*
G01*
X11823700Y7353300D03*
G01*
X11823700Y7607300D03*
G01*
X11823700Y7861300D03*
G01*
X11823700Y8115300D03*
D12*
G01*
X7835900Y2311400D03*
G01*
X7835900Y2565400D03*
G01*
X7835900Y2819400D03*
G01*
X7835900Y3073400D03*
D11*
G01*
X7835900Y3327400D03*
D12*
G01*
X7569200Y2311400D03*
G01*
X7569200Y2565400D03*
G01*
X7569200Y2819400D03*
G01*
X7569200Y3073400D03*
D11*
G01*
X7569200Y3327400D03*
D12*
G01*
X7289800Y2311400D03*
G01*
X7289800Y2565400D03*
G01*
X7289800Y2819400D03*
G01*
X7289800Y3073400D03*
D11*
G01*
X7289800Y3327400D03*
D18*
G01*
X2032000Y8140700D03*
D19*
G01*
X2032000Y7886700D03*
G01*
X2032000Y7632700D03*
D20*
G01*
X4305300Y6273800D03*
G01*
X4305300Y6019800D03*
G01*
X4305300Y5765800D03*
G01*
X4305300Y6527800D03*
G01*
X4305300Y6781800D03*
D21*
G01*
X2120900Y6527800D03*
G01*
X2120900Y6019800D03*
G01*
X2120900Y7035800D03*
G01*
X2120900Y5511800D03*
D16*
G01*
X6756400Y3258464D03*
G01*
X6756400Y3507003D03*
G01*
X6756400Y3755567D03*
G01*
X6756400Y4013200D03*
G01*
X6756400Y4252696D03*
G01*
X6756400Y4501235D03*
G01*
X6756400Y4749800D03*
D22*
G01*
X6756400Y3009900D03*
D11*
G01*
X6121400Y7912100D03*
D12*
G01*
X5867400Y7912100D03*
G01*
X5613400Y7912100D03*
D23*
G01*
X12573000Y8026400D03*
D10*
G01*
X12573000Y7772400D03*
G01*
X12573000Y7518400D03*
G01*
X12573000Y7264400D03*
G01*
X12573000Y7010400D03*
G01*
X12573000Y6756400D03*
G01*
X12573000Y6502400D03*
G01*
X12573000Y6248400D03*
G01*
X12573000Y5994400D03*
G01*
X12573000Y5740400D03*
G01*
X12573000Y5486400D03*
G01*
X12573000Y5232400D03*
G01*
X12573000Y4978400D03*
G01*
X12573000Y4724400D03*
G01*
X12573000Y4470400D03*
G01*
X12573000Y4216400D03*
G01*
X12573000Y3962400D03*
G01*
X12573000Y3708400D03*
G01*
X12573000Y3454400D03*
G01*
X12573000Y3200400D03*
G01*
X12573000Y2946400D03*
G01*
X12573000Y2692400D03*
D24*
G01*
X2959100Y4724400D03*
G01*
X3213100Y4724400D03*
G01*
X3467404Y4724400D03*
G01*
X3721100Y4724400D03*
D16*
G01*
X5867400Y6819900D03*
G01*
X5867400Y7442200D03*
G01*
X7835900Y2006600D03*
G01*
X8394700Y1752600D03*
D25*
G01*
X7454900Y1981200D03*
G01*
X7454900Y1460500D03*
M02*
