G04 Layer: BottomSilkscreenLayer*
G04 EasyEDA v6.5.54, 2026-09-28 19:29:52*
G04 fa649360aa944b6bb8677e8924a5ad4c,fdeac84f5221418fb8db622358c4ba40,10*
G04 Gerber Generator version 0.2*
G04 Scale: 100 percent, Rotated: No, Reflected: No *
G04 Dimensions in millimeters *
G04 leading zeros omitted , absolute positions ,4 integer and 5 decimal *
%FSLAX45Y45*%
%MOMM*%

%ADD10C,0.2540*%
%ADD11C,0.0179*%

%LPD*%
G36*
X5118100Y6743700D02*
G01*
X5105400Y6731000D01*
X5080000Y6731000D01*
X5067300Y6718300D01*
X5054600Y6718300D01*
X5041900Y6705600D01*
X5003800Y6705600D01*
X4965700Y6667500D01*
X4940300Y6667500D01*
X4902200Y6629400D01*
X4876800Y6629400D01*
X4826000Y6578600D01*
X4826000Y6565900D01*
X4813300Y6553200D01*
X4800600Y6553200D01*
X4787900Y6540500D01*
X4787900Y6502400D01*
X4775200Y6489700D01*
X4775200Y5943600D01*
X4826000Y5994400D01*
X4826000Y6032500D01*
X4889500Y6096000D01*
X4889500Y6134100D01*
X4902200Y6146800D01*
X4902200Y6159500D01*
X4940300Y6197600D01*
X4965700Y6197600D01*
X4978400Y6210300D01*
X5041900Y6210300D01*
X5054600Y6197600D01*
X5080000Y6197600D01*
X5092700Y6184900D01*
X5092700Y6172200D01*
X5118100Y6146800D01*
X5118100Y6134100D01*
X5130800Y6121400D01*
X5130800Y6083300D01*
X5118100Y6070600D01*
X5118100Y6045200D01*
X5105400Y6032500D01*
X5105400Y5562600D01*
X5219700Y5448300D01*
X5219700Y6743700D01*
G37*
G36*
X4787696Y6545986D02*
G01*
X4677664Y6396024D01*
X4627676Y6265976D01*
X4617669Y6145987D01*
X4627676Y5945987D01*
X4687671Y5776010D01*
X4787696Y5665978D01*
G37*
G36*
X4610100Y6096000D02*
G01*
X4610100Y6032500D01*
X4622800Y6032500D01*
X4660900Y6096000D01*
G37*
G36*
X4876800Y6108700D02*
G01*
X4749800Y5981700D01*
X4749800Y5803900D01*
X4781550Y5772150D01*
X4762500Y5753100D01*
X4762500Y5702300D01*
X4775200Y5689600D01*
X4775200Y5664200D01*
X4864100Y5575300D01*
X4876800Y5575300D01*
X4914900Y5537200D01*
X4940300Y5537200D01*
X4953000Y5524500D01*
X4978400Y5524500D01*
X5003800Y5499100D01*
X5041900Y5499100D01*
X5054600Y5486400D01*
X5067300Y5486400D01*
X5080000Y5473700D01*
X5105400Y5473700D01*
X5118100Y5461000D01*
X5130800Y5461000D01*
X5143500Y5448300D01*
X5207000Y5448300D01*
X5105400Y6032500D01*
X5067300Y5994400D01*
X5054600Y5994400D01*
X5041900Y5981700D01*
X4978400Y5981700D01*
X4965700Y5994400D01*
X4940300Y5994400D01*
X4914900Y6019800D01*
X4914900Y6032500D01*
X4902200Y6045200D01*
X4902200Y6070600D01*
X4876800Y6096000D01*
G37*
G36*
X4978400Y5537200D02*
G01*
X4965700Y5524500D01*
X4978400Y5511800D01*
X4991100Y5511800D01*
G37*
G36*
X5029200Y5511800D02*
G01*
X5029200Y5486400D01*
X5054600Y5486400D01*
G37*
G36*
X5207000Y5473700D02*
G01*
X5194300Y5448300D01*
X5207000Y5448300D01*
G37*
D10*
G75*
G01
X5907811Y6096000D02*
G03X5907811Y6096000I-650011J0D01*
G75*
G01
X5119802Y6096000D02*
G03X5119802Y6096000I-112141J0D01*
M02*
