M48
METRIC,LZ,000.000
;FILE_FORMAT=3:3
;TYPE=PLATED
;Layer: PTH_Through
;EasyEDA v6.5.54, 2026-09-30 14:39:37
;eb17272de7ff421ebd269ce60837b0a6,fdeac84f5221418fb8db622358c4ba40,10
;Gerber Generator version 0.2
;Holesize 1 = 0.889 mm
T01C0.889
;Holesize 2 = 0.901 mm
T02C0.901
;Holesize 3 = 0.915 mm
T03C0.915
;Holesize 4 = 1.000 mm
T04C1.000
;Holesize 5 = 1.101 mm
T05C1.101
%
G05
G90
T01
X094107Y003810
X094107Y006350
X094107Y008890
X094107Y011430
X094107Y013970
X096647Y013970
X096647Y011430
X096647Y008890
X096647Y006350
X096647Y003810
X091567Y013970
X091567Y011430
X091567Y008890
X091567Y006350
X091567Y003810
X086106Y003937
X086106Y006477
X086106Y009017
X086106Y011557
X086106Y014097
X092583Y059690
X090043Y059690
X087503Y059690
X084963Y059690
X082423Y059690
X079883Y059690
X077343Y059690
X074803Y059690
X072263Y059690
X069723Y059690
X067183Y059690
X064643Y059690
X062103Y059690
X059563Y059690
X057023Y059690
X057023Y025146
X059563Y025146
X062103Y025146
X064643Y025146
X067183Y025146
X069723Y025146
X072263Y025146
X074803Y025146
X077343Y025146
X079883Y025146
X082423Y025146
X084963Y025146
X087503Y025146
X090043Y025146
X092583Y025146
T02
X026416Y048387
X026416Y045847
X026416Y043307
X026416Y050927
X026416Y053467
X004572Y050927
X004572Y045847
X004572Y056007
X004572Y040767
T03
X045212Y054356
X043434Y054356
X041656Y054356
X039878Y054356
X037973Y054356
X036195Y054356
X023241Y034544
X025781Y034544
X028324Y034544
X030861Y034544
T04
X016383Y008509G85X016383Y008509
X016383Y018669G85X016383Y018669
X016383Y016129G85X016383Y016129
X016383Y013589G85X016383Y013589
X016383Y011049G85X016383Y011049
X051943Y011049G85X051943Y011049
X051943Y013589G85X051943Y013589
X051943Y016129G85X051943Y016129
X051943Y018669G85X051943Y018669
X016383Y021209G85X016383Y021209
X092599Y054923G85X092599Y054923
X090059Y054923G85X090059Y054923
X087519Y054923G85X087519Y054923
X084979Y054923G85X084979Y054923
X082439Y054923G85X082439Y054923
X079899Y054923G85X079899Y054923
X077359Y054923G85X077359Y054923
X074819Y054923G85X074819Y054923
X072279Y054923G85X072279Y054923
X069739Y054923G85X069739Y054923
X067199Y054923G85X067199Y054923
X064659Y054923G85X064659Y054923
X062119Y054923G85X062119Y054923
X059579Y054923G85X059579Y054923
X057039Y054923G85X057039Y054923
X057039Y030153G85X057039Y030153
X059579Y030153G85X059579Y030153
X062119Y030153G85X062119Y030153
X064659Y030153G85X064659Y030153
X067199Y030153G85X067199Y030153
X069739Y030153G85X069739Y030153
X072279Y030153G85X072279Y030153
X074819Y030153G85X074819Y030153
X077359Y030153G85X077359Y030153
X079899Y030153G85X079899Y030153
X082439Y030153G85X082439Y030153
X084979Y030153G85X084979Y030153
X087519Y030153G85X087519Y030153
X090059Y030153G85X090059Y030153
X092599Y030153G85X092599Y030153
X019304Y040132G85X019304Y040132
X023241Y040132G85X023241Y040132
X031115Y021336G85X031115Y021336
X028321Y021844G85X028321Y021844
X030861Y030480G85X030861Y030480
X028321Y032131G85X028321Y032131
T05
X076962Y006262
X076962Y011262
M30
