G04 Layer: BottomSilkscreenLayer*
G04 EasyEDA v6.5.54, 2026-09-30 14:39:37*
G04 eb17272de7ff421ebd269ce60837b0a6,fdeac84f5221418fb8db622358c4ba40,10*
G04 Gerber Generator version 0.2*
G04 Scale: 100 percent, Rotated: No, Reflected: No *
G04 Dimensions in millimeters *
G04 leading zeros omitted , absolute positions ,4 integer and 5 decimal *
%FSLAX45Y45*%
%MOMM*%

%ADD10C,0.2540*%
%ADD11C,0.0156*%

%LPD*%
G36*
X7048500Y838200D02*
G01*
X7048500Y736600D01*
X7061200Y723900D01*
X7061200Y698500D01*
X7073900Y685800D01*
X7073900Y673100D01*
X7086600Y660400D01*
X7086600Y622300D01*
X7124700Y584200D01*
X7124700Y558800D01*
X7162800Y520700D01*
X7162800Y495300D01*
X7213600Y444500D01*
X7226300Y444500D01*
X7239000Y431800D01*
X7239000Y419100D01*
X7251700Y406400D01*
X7289800Y406400D01*
X7302500Y393700D01*
X7848600Y393700D01*
X7797800Y444500D01*
X7759700Y444500D01*
X7696200Y508000D01*
X7658100Y508000D01*
X7645400Y520700D01*
X7632700Y520700D01*
X7594600Y558800D01*
X7594600Y584200D01*
X7581900Y596900D01*
X7581900Y660400D01*
X7594600Y673100D01*
X7594600Y698500D01*
X7607300Y711200D01*
X7620000Y711200D01*
X7645400Y736600D01*
X7658100Y736600D01*
X7670800Y749300D01*
X7708900Y749300D01*
X7721600Y736600D01*
X7747000Y736600D01*
X7759700Y723900D01*
X8229600Y723900D01*
X8343900Y838200D01*
G37*
G36*
X7246213Y406196D02*
G01*
X7396225Y296164D01*
X7526223Y246176D01*
X7646212Y236169D01*
X7846212Y246176D01*
X8016189Y306171D01*
X8126222Y406196D01*
G37*
G36*
X7696200Y279400D02*
G01*
X7696200Y228600D01*
X7759700Y228600D01*
X7759700Y241300D01*
G37*
G36*
X8343900Y825500D02*
G01*
X7759700Y723900D01*
X7797800Y685800D01*
X7797800Y673100D01*
X7810500Y660400D01*
X7810500Y596900D01*
X7797800Y584200D01*
X7797800Y558800D01*
X7772400Y533400D01*
X7759700Y533400D01*
X7747000Y520700D01*
X7721600Y520700D01*
X7696200Y495300D01*
X7683500Y495300D01*
X7810500Y368300D01*
X7988300Y368300D01*
X8020050Y400050D01*
X8039100Y381000D01*
X8089900Y381000D01*
X8102600Y393700D01*
X8128000Y393700D01*
X8216900Y482600D01*
X8216900Y495300D01*
X8255000Y533400D01*
X8255000Y558800D01*
X8267700Y571500D01*
X8267700Y596900D01*
X8293100Y622300D01*
X8293100Y660400D01*
X8305800Y673100D01*
X8305800Y685800D01*
X8318500Y698500D01*
X8318500Y723900D01*
X8331200Y736600D01*
X8331200Y749300D01*
X8343900Y762000D01*
G37*
G36*
X8280400Y609600D02*
G01*
X8255000Y596900D01*
X8267700Y584200D01*
X8280400Y596900D01*
G37*
G36*
X8305800Y673100D02*
G01*
X8280400Y647700D01*
X8305800Y647700D01*
G37*
G36*
X8318500Y825500D02*
G01*
X8343900Y812800D01*
X8343900Y825500D01*
G37*
D10*
G75*
G01
X8346211Y876300D02*
G03X8346211Y876300I-650011J0D01*
G75*
G01
X7808341Y626161D02*
G03X7808341Y626161I-112141J0D01*
M02*
