G04 Layer: TopSilkscreenLayer*
G04 EasyEDA v6.5.54, 2026-09-30 14:39:37*
G04 eb17272de7ff421ebd269ce60837b0a6,fdeac84f5221418fb8db622358c4ba40,10*
G04 Gerber Generator version 0.2*
G04 Scale: 100 percent, Rotated: No, Reflected: No *
G04 Dimensions in millimeters *
G04 leading zeros omitted , absolute positions ,4 integer and 5 decimal *
%FSLAX45Y45*%
%MOMM*%

%ADD10C,0.1524*%
%ADD11C,0.1016*%
%ADD12C,0.0813*%
%ADD13C,0.1544*%
%ADD14C,0.2032*%
%ADD15C,0.1270*%
%ADD16C,0.2540*%
%ADD17C,0.0193*%
%ADD18C,0.2030*%
%ADD19C,0.2030*%

%LPD*%
D10*
X3421379Y2769107D02*
G01*
X3421379Y2774187D01*
X3426713Y2784602D01*
X3431793Y2789936D01*
X3442208Y2795015D01*
X3463036Y2795015D01*
X3473450Y2789936D01*
X3478529Y2784602D01*
X3483863Y2774187D01*
X3483863Y2763773D01*
X3478529Y2753360D01*
X3468370Y2737865D01*
X3416300Y2686050D01*
X3488943Y2686050D01*
D11*
X1840229Y979170D02*
G01*
X1903729Y979170D01*
X1869186Y932942D01*
X1886457Y932942D01*
X1898142Y927100D01*
X1903729Y921257D01*
X1909571Y903986D01*
X1909571Y892555D01*
X1903729Y875029D01*
X1892300Y863600D01*
X1875028Y857757D01*
X1857755Y857757D01*
X1840229Y863600D01*
X1834642Y869442D01*
X1828800Y880871D01*
X1953513Y950213D02*
G01*
X1953513Y956055D01*
X1959356Y967486D01*
X1964943Y973328D01*
X1976627Y979170D01*
X1999741Y979170D01*
X2011172Y973328D01*
X2017013Y967486D01*
X2022856Y956055D01*
X2022856Y944371D01*
X2017013Y932942D01*
X2005329Y915670D01*
X1947672Y857757D01*
X2028443Y857757D01*
X2066543Y979170D02*
G01*
X2066543Y857757D01*
X2147570Y979170D02*
G01*
X2066543Y898144D01*
X2095500Y927100D02*
G01*
X2147570Y857757D01*
X1909571Y1215644D02*
G01*
X1898142Y1227328D01*
X1880870Y1233170D01*
X1857755Y1233170D01*
X1840229Y1227328D01*
X1828800Y1215644D01*
X1828800Y1204213D01*
X1834642Y1192529D01*
X1840229Y1186942D01*
X1851913Y1181100D01*
X1886457Y1169670D01*
X1898142Y1163828D01*
X1903729Y1157986D01*
X1909571Y1146555D01*
X1909571Y1129029D01*
X1898142Y1117600D01*
X1880870Y1111757D01*
X1857755Y1111757D01*
X1840229Y1117600D01*
X1828800Y1129029D01*
X1982470Y1233170D02*
G01*
X1970786Y1227328D01*
X1959356Y1215644D01*
X1953513Y1204213D01*
X1947672Y1186942D01*
X1947672Y1157986D01*
X1953513Y1140713D01*
X1959356Y1129029D01*
X1970786Y1117600D01*
X1982470Y1111757D01*
X2005329Y1111757D01*
X2017013Y1117600D01*
X2028443Y1129029D01*
X2034286Y1140713D01*
X2040127Y1157986D01*
X2040127Y1186942D01*
X2034286Y1204213D01*
X2028443Y1215644D01*
X2017013Y1227328D01*
X2005329Y1233170D01*
X1982470Y1233170D01*
X1999741Y1134871D02*
G01*
X2034286Y1100328D01*
X2078227Y1233170D02*
G01*
X2106929Y1111757D01*
X2135886Y1233170D02*
G01*
X2106929Y1111757D01*
X2135886Y1233170D02*
G01*
X2164841Y1111757D01*
X2193543Y1233170D02*
G01*
X2164841Y1111757D01*
X1909571Y1469644D02*
G01*
X1898142Y1481328D01*
X1880870Y1487170D01*
X1857755Y1487170D01*
X1840229Y1481328D01*
X1828800Y1469644D01*
X1828800Y1458213D01*
X1834642Y1446529D01*
X1840229Y1440942D01*
X1851913Y1435100D01*
X1886457Y1423670D01*
X1898142Y1417828D01*
X1903729Y1411986D01*
X1909571Y1400555D01*
X1909571Y1383029D01*
X1898142Y1371600D01*
X1880870Y1365757D01*
X1857755Y1365757D01*
X1840229Y1371600D01*
X1828800Y1383029D01*
X2034286Y1458213D02*
G01*
X2028443Y1469644D01*
X2017013Y1481328D01*
X2005329Y1487170D01*
X1982470Y1487170D01*
X1970786Y1481328D01*
X1959356Y1469644D01*
X1953513Y1458213D01*
X1947672Y1440942D01*
X1947672Y1411986D01*
X1953513Y1394713D01*
X1959356Y1383029D01*
X1970786Y1371600D01*
X1982470Y1365757D01*
X2005329Y1365757D01*
X2017013Y1371600D01*
X2028443Y1383029D01*
X2034286Y1394713D01*
X2072386Y1487170D02*
G01*
X2072386Y1365757D01*
X2072386Y1365757D02*
G01*
X2141727Y1365757D01*
X1909571Y1723644D02*
G01*
X1898142Y1735328D01*
X1880870Y1741170D01*
X1857755Y1741170D01*
X1840229Y1735328D01*
X1828800Y1723644D01*
X1828800Y1712213D01*
X1834642Y1700529D01*
X1840229Y1694942D01*
X1851913Y1689100D01*
X1886457Y1677670D01*
X1898142Y1671828D01*
X1903729Y1665986D01*
X1909571Y1654555D01*
X1909571Y1637029D01*
X1898142Y1625600D01*
X1880870Y1619757D01*
X1857755Y1619757D01*
X1840229Y1625600D01*
X1828800Y1637029D01*
X1947672Y1741170D02*
G01*
X1947672Y1619757D01*
X1947672Y1741170D02*
G01*
X1988058Y1741170D01*
X2005329Y1735328D01*
X2017013Y1723644D01*
X2022856Y1712213D01*
X2028443Y1694942D01*
X2028443Y1665986D01*
X2022856Y1648713D01*
X2017013Y1637029D01*
X2005329Y1625600D01*
X1988058Y1619757D01*
X1947672Y1619757D01*
X2112772Y1741170D02*
G01*
X2066543Y1619757D01*
X2112772Y1741170D02*
G01*
X2159000Y1619757D01*
X2084070Y1660144D02*
G01*
X2141727Y1660144D01*
X1828800Y1995170D02*
G01*
X1875028Y1873757D01*
X1921255Y1995170D02*
G01*
X1875028Y1873757D01*
X2045970Y1966213D02*
G01*
X2040127Y1977644D01*
X2028443Y1989328D01*
X2017013Y1995170D01*
X1993900Y1995170D01*
X1982470Y1989328D01*
X1970786Y1977644D01*
X1964943Y1966213D01*
X1959356Y1948942D01*
X1959356Y1919986D01*
X1964943Y1902713D01*
X1970786Y1891029D01*
X1982470Y1879600D01*
X1993900Y1873757D01*
X2017013Y1873757D01*
X2028443Y1879600D01*
X2040127Y1891029D01*
X2045970Y1902713D01*
X2170429Y1966213D02*
G01*
X2164841Y1977644D01*
X2153158Y1989328D01*
X2141727Y1995170D01*
X2118613Y1995170D01*
X2106929Y1989328D01*
X2095500Y1977644D01*
X2089658Y1966213D01*
X2084070Y1948942D01*
X2084070Y1919986D01*
X2089658Y1902713D01*
X2095500Y1891029D01*
X2106929Y1879600D01*
X2118613Y1873757D01*
X2141727Y1873757D01*
X2153158Y1879600D01*
X2164841Y1891029D01*
X2170429Y1902713D01*
X1915413Y2220213D02*
G01*
X1909571Y2231644D01*
X1898142Y2243328D01*
X1886457Y2249170D01*
X1863344Y2249170D01*
X1851913Y2243328D01*
X1840229Y2231644D01*
X1834642Y2220213D01*
X1828800Y2202942D01*
X1828800Y2173986D01*
X1834642Y2156713D01*
X1840229Y2145029D01*
X1851913Y2133600D01*
X1863344Y2127757D01*
X1886457Y2127757D01*
X1898142Y2133600D01*
X1909571Y2145029D01*
X1915413Y2156713D01*
X1915413Y2173986D01*
X1886457Y2173986D02*
G01*
X1915413Y2173986D01*
X1953513Y2249170D02*
G01*
X1953513Y2127757D01*
X1953513Y2249170D02*
G01*
X2034286Y2127757D01*
X2034286Y2249170D02*
G01*
X2034286Y2127757D01*
X2072386Y2249170D02*
G01*
X2072386Y2127757D01*
X2072386Y2249170D02*
G01*
X2112772Y2249170D01*
X2130043Y2243328D01*
X2141727Y2231644D01*
X2147570Y2220213D01*
X2153158Y2202942D01*
X2153158Y2173986D01*
X2147570Y2156713D01*
X2141727Y2145029D01*
X2130043Y2133600D01*
X2112772Y2127757D01*
X2072386Y2127757D01*
X4703572Y1215644D02*
G01*
X4692141Y1227328D01*
X4674870Y1233170D01*
X4651756Y1233170D01*
X4634229Y1227328D01*
X4622800Y1215644D01*
X4622800Y1204213D01*
X4628641Y1192529D01*
X4634229Y1186942D01*
X4645913Y1181100D01*
X4680458Y1169670D01*
X4692141Y1163828D01*
X4697729Y1157986D01*
X4703572Y1146555D01*
X4703572Y1129029D01*
X4692141Y1117600D01*
X4674870Y1111757D01*
X4651756Y1111757D01*
X4634229Y1117600D01*
X4622800Y1129029D01*
X4828286Y1204213D02*
G01*
X4822443Y1215644D01*
X4811013Y1227328D01*
X4799329Y1233170D01*
X4776470Y1233170D01*
X4764786Y1227328D01*
X4753356Y1215644D01*
X4747513Y1204213D01*
X4741672Y1186942D01*
X4741672Y1157986D01*
X4747513Y1140713D01*
X4753356Y1129029D01*
X4764786Y1117600D01*
X4776470Y1111757D01*
X4799329Y1111757D01*
X4811013Y1117600D01*
X4822443Y1129029D01*
X4828286Y1140713D01*
X4866386Y1233170D02*
G01*
X4866386Y1111757D01*
X4866386Y1111757D02*
G01*
X4935727Y1111757D01*
X4690872Y1444244D02*
G01*
X4679441Y1455928D01*
X4662170Y1461770D01*
X4639056Y1461770D01*
X4621529Y1455928D01*
X4610100Y1444244D01*
X4610100Y1432813D01*
X4615941Y1421129D01*
X4621529Y1415542D01*
X4633213Y1409700D01*
X4667758Y1398270D01*
X4679441Y1392428D01*
X4685029Y1386586D01*
X4690872Y1375155D01*
X4690872Y1357629D01*
X4679441Y1346200D01*
X4662170Y1340357D01*
X4639056Y1340357D01*
X4621529Y1346200D01*
X4610100Y1357629D01*
X4728972Y1461770D02*
G01*
X4728972Y1340357D01*
X4728972Y1461770D02*
G01*
X4769358Y1461770D01*
X4786629Y1455928D01*
X4798313Y1444244D01*
X4804156Y1432813D01*
X4809743Y1415542D01*
X4809743Y1386586D01*
X4804156Y1369313D01*
X4798313Y1357629D01*
X4786629Y1346200D01*
X4769358Y1340357D01*
X4728972Y1340357D01*
X4894072Y1461770D02*
G01*
X4847843Y1340357D01*
X4894072Y1461770D02*
G01*
X4940300Y1340357D01*
X4865370Y1380744D02*
G01*
X4923027Y1380744D01*
X4622800Y1741170D02*
G01*
X4669027Y1619757D01*
X4715256Y1741170D02*
G01*
X4669027Y1619757D01*
X4839970Y1712213D02*
G01*
X4834127Y1723644D01*
X4822443Y1735328D01*
X4811013Y1741170D01*
X4787900Y1741170D01*
X4776470Y1735328D01*
X4764786Y1723644D01*
X4758943Y1712213D01*
X4753356Y1694942D01*
X4753356Y1665986D01*
X4758943Y1648713D01*
X4764786Y1637029D01*
X4776470Y1625600D01*
X4787900Y1619757D01*
X4811013Y1619757D01*
X4822443Y1625600D01*
X4834127Y1637029D01*
X4839970Y1648713D01*
X4964429Y1712213D02*
G01*
X4958841Y1723644D01*
X4947158Y1735328D01*
X4935727Y1741170D01*
X4912613Y1741170D01*
X4900929Y1735328D01*
X4889500Y1723644D01*
X4883658Y1712213D01*
X4878070Y1694942D01*
X4878070Y1665986D01*
X4883658Y1648713D01*
X4889500Y1637029D01*
X4900929Y1625600D01*
X4912613Y1619757D01*
X4935727Y1619757D01*
X4947158Y1625600D01*
X4958841Y1637029D01*
X4964429Y1648713D01*
X4709413Y1966213D02*
G01*
X4703572Y1977644D01*
X4692141Y1989328D01*
X4680458Y1995170D01*
X4657343Y1995170D01*
X4645913Y1989328D01*
X4634229Y1977644D01*
X4628641Y1966213D01*
X4622800Y1948942D01*
X4622800Y1919986D01*
X4628641Y1902713D01*
X4634229Y1891029D01*
X4645913Y1879600D01*
X4657343Y1873757D01*
X4680458Y1873757D01*
X4692141Y1879600D01*
X4703572Y1891029D01*
X4709413Y1902713D01*
X4709413Y1919986D01*
X4680458Y1919986D02*
G01*
X4709413Y1919986D01*
X4747513Y1995170D02*
G01*
X4747513Y1873757D01*
X4747513Y1995170D02*
G01*
X4828286Y1873757D01*
X4828286Y1995170D02*
G01*
X4828286Y1873757D01*
X4866386Y1995170D02*
G01*
X4866386Y1873757D01*
X4866386Y1995170D02*
G01*
X4906772Y1995170D01*
X4924043Y1989328D01*
X4935727Y1977644D01*
X4941570Y1966213D01*
X4947158Y1948942D01*
X4947158Y1919986D01*
X4941570Y1902713D01*
X4935727Y1891029D01*
X4924043Y1879600D01*
X4906772Y1873757D01*
X4866386Y1873757D01*
D10*
X4807711Y4305300D02*
G01*
X4802377Y4315713D01*
X4786884Y4331207D01*
X4895850Y4331207D01*
D12*
X9347187Y5249100D02*
G01*
X9347187Y5198300D01*
X9310357Y5225986D01*
X9310357Y5212016D01*
X9305785Y5202872D01*
X9300959Y5198300D01*
X9287243Y5193728D01*
X9278099Y5193728D01*
X9264129Y5198300D01*
X9254985Y5207444D01*
X9250159Y5221414D01*
X9250159Y5235130D01*
X9254985Y5249100D01*
X9259557Y5253672D01*
X9268701Y5258244D01*
X9347187Y5163248D02*
G01*
X9250159Y5126164D01*
X9347187Y5089334D02*
G01*
X9250159Y5126164D01*
X9347187Y5049456D02*
G01*
X9347187Y4998656D01*
X9310357Y5026342D01*
X9310357Y5012626D01*
X9305785Y5003228D01*
X9300959Y4998656D01*
X9287243Y4994084D01*
X9278099Y4994084D01*
X9264129Y4998656D01*
X9254985Y5008054D01*
X9250159Y5021770D01*
X9250159Y5035740D01*
X9254985Y5049456D01*
X9259557Y5054028D01*
X9268701Y5058854D01*
X9070073Y5188902D02*
G01*
X9079471Y5193728D01*
X9088615Y5202872D01*
X9093187Y5212016D01*
X9093187Y5230558D01*
X9088615Y5239702D01*
X9079471Y5249100D01*
X9070073Y5253672D01*
X9056357Y5258244D01*
X9033243Y5258244D01*
X9019273Y5253672D01*
X9010129Y5249100D01*
X9000985Y5239702D01*
X8996159Y5230558D01*
X8996159Y5212016D01*
X9000985Y5202872D01*
X9010129Y5193728D01*
X9019273Y5188902D01*
X9033243Y5188902D01*
X9033243Y5212016D02*
G01*
X9033243Y5188902D01*
X9093187Y5158422D02*
G01*
X8996159Y5158422D01*
X9093187Y5158422D02*
G01*
X8996159Y5093906D01*
X9093187Y5093906D02*
G01*
X8996159Y5093906D01*
X9093187Y5063426D02*
G01*
X8996159Y5063426D01*
X9093187Y5063426D02*
G01*
X9093187Y5031168D01*
X9088615Y5017198D01*
X9079471Y5008054D01*
X9070073Y5003228D01*
X9056357Y4998656D01*
X9033243Y4998656D01*
X9019273Y5003228D01*
X9010129Y5008054D01*
X9000985Y5017198D01*
X8996159Y5031168D01*
X8996159Y5063426D01*
X8839187Y5258244D02*
G01*
X8742159Y5258244D01*
X8839187Y5200078D02*
G01*
X8834615Y5209222D01*
X8825471Y5218620D01*
X8816073Y5223192D01*
X8802357Y5227764D01*
X8779243Y5227764D01*
X8765273Y5223192D01*
X8756129Y5218620D01*
X8746985Y5209222D01*
X8742159Y5200078D01*
X8742159Y5181536D01*
X8746985Y5172392D01*
X8756129Y5163248D01*
X8765273Y5158422D01*
X8779243Y5153850D01*
X8802357Y5153850D01*
X8816073Y5158422D01*
X8825471Y5163248D01*
X8834615Y5172392D01*
X8839187Y5181536D01*
X8839187Y5200078D01*
X8820899Y5123370D02*
G01*
X8825471Y5114226D01*
X8839187Y5100256D01*
X8742159Y5100256D01*
X8839187Y5014404D02*
G01*
X8839187Y5060632D01*
X8797785Y5065204D01*
X8802357Y5060632D01*
X8806929Y5046662D01*
X8806929Y5032946D01*
X8802357Y5018976D01*
X8792959Y5009832D01*
X8779243Y5005260D01*
X8770099Y5005260D01*
X8756129Y5009832D01*
X8746985Y5018976D01*
X8742159Y5032946D01*
X8742159Y5046662D01*
X8746985Y5060632D01*
X8751557Y5065204D01*
X8760701Y5069776D01*
X8585187Y5258244D02*
G01*
X8488159Y5258244D01*
X8585187Y5200078D02*
G01*
X8580615Y5209222D01*
X8571471Y5218620D01*
X8562073Y5223192D01*
X8548357Y5227764D01*
X8525243Y5227764D01*
X8511273Y5223192D01*
X8502129Y5218620D01*
X8492985Y5209222D01*
X8488159Y5200078D01*
X8488159Y5181536D01*
X8492985Y5172392D01*
X8502129Y5163248D01*
X8511273Y5158422D01*
X8525243Y5153850D01*
X8548357Y5153850D01*
X8562073Y5158422D01*
X8571471Y5163248D01*
X8580615Y5172392D01*
X8585187Y5181536D01*
X8585187Y5200078D01*
X8562073Y5118798D02*
G01*
X8566899Y5118798D01*
X8576043Y5114226D01*
X8580615Y5109654D01*
X8585187Y5100256D01*
X8585187Y5081968D01*
X8580615Y5072570D01*
X8576043Y5067998D01*
X8566899Y5063426D01*
X8557501Y5063426D01*
X8548357Y5067998D01*
X8534387Y5077142D01*
X8488159Y5123370D01*
X8488159Y5058854D01*
X8331187Y5258244D02*
G01*
X8234159Y5258244D01*
X8331187Y5200078D02*
G01*
X8326615Y5209222D01*
X8317471Y5218620D01*
X8308073Y5223192D01*
X8294357Y5227764D01*
X8271243Y5227764D01*
X8257273Y5223192D01*
X8248129Y5218620D01*
X8238985Y5209222D01*
X8234159Y5200078D01*
X8234159Y5181536D01*
X8238985Y5172392D01*
X8248129Y5163248D01*
X8257273Y5158422D01*
X8271243Y5153850D01*
X8294357Y5153850D01*
X8308073Y5158422D01*
X8317471Y5163248D01*
X8326615Y5172392D01*
X8331187Y5181536D01*
X8331187Y5200078D01*
X8331187Y5077142D02*
G01*
X8266671Y5123370D01*
X8266671Y5054028D01*
X8331187Y5077142D02*
G01*
X8234159Y5077142D01*
X8077187Y5258244D02*
G01*
X7980159Y5258244D01*
X8077187Y5200078D02*
G01*
X8072615Y5209222D01*
X8063471Y5218620D01*
X8054073Y5223192D01*
X8040357Y5227764D01*
X8017243Y5227764D01*
X8003273Y5223192D01*
X7994129Y5218620D01*
X7984985Y5209222D01*
X7980159Y5200078D01*
X7980159Y5181536D01*
X7984985Y5172392D01*
X7994129Y5163248D01*
X8003273Y5158422D01*
X8017243Y5153850D01*
X8040357Y5153850D01*
X8054073Y5158422D01*
X8063471Y5163248D01*
X8072615Y5172392D01*
X8077187Y5181536D01*
X8077187Y5200078D01*
X8058899Y5123370D02*
G01*
X8063471Y5114226D01*
X8077187Y5100256D01*
X7980159Y5100256D01*
X8063471Y5014404D02*
G01*
X8072615Y5018976D01*
X8077187Y5032946D01*
X8077187Y5042090D01*
X8072615Y5056060D01*
X8058899Y5065204D01*
X8035785Y5069776D01*
X8012671Y5069776D01*
X7994129Y5065204D01*
X7984985Y5056060D01*
X7980159Y5042090D01*
X7980159Y5037518D01*
X7984985Y5023548D01*
X7994129Y5014404D01*
X8008099Y5009832D01*
X8012671Y5009832D01*
X8026387Y5014404D01*
X8035785Y5023548D01*
X8040357Y5037518D01*
X8040357Y5042090D01*
X8035785Y5056060D01*
X8026387Y5065204D01*
X8012671Y5069776D01*
X7823187Y5258244D02*
G01*
X7726159Y5258244D01*
X7823187Y5200078D02*
G01*
X7818615Y5209222D01*
X7809471Y5218620D01*
X7800073Y5223192D01*
X7786357Y5227764D01*
X7763243Y5227764D01*
X7749273Y5223192D01*
X7740129Y5218620D01*
X7730985Y5209222D01*
X7726159Y5200078D01*
X7726159Y5181536D01*
X7730985Y5172392D01*
X7740129Y5163248D01*
X7749273Y5158422D01*
X7763243Y5153850D01*
X7786357Y5153850D01*
X7800073Y5158422D01*
X7809471Y5163248D01*
X7818615Y5172392D01*
X7823187Y5181536D01*
X7823187Y5200078D01*
X7804899Y5123370D02*
G01*
X7809471Y5114226D01*
X7823187Y5100256D01*
X7726159Y5100256D01*
X7823187Y5005260D02*
G01*
X7726159Y5051488D01*
X7823187Y5069776D02*
G01*
X7823187Y5005260D01*
X7569187Y5258244D02*
G01*
X7472159Y5258244D01*
X7569187Y5200078D02*
G01*
X7564615Y5209222D01*
X7555471Y5218620D01*
X7546073Y5223192D01*
X7532357Y5227764D01*
X7509243Y5227764D01*
X7495273Y5223192D01*
X7486129Y5218620D01*
X7476985Y5209222D01*
X7472159Y5200078D01*
X7472159Y5181536D01*
X7476985Y5172392D01*
X7486129Y5163248D01*
X7495273Y5158422D01*
X7509243Y5153850D01*
X7532357Y5153850D01*
X7546073Y5158422D01*
X7555471Y5163248D01*
X7564615Y5172392D01*
X7569187Y5181536D01*
X7569187Y5200078D01*
X7569187Y5067998D02*
G01*
X7569187Y5114226D01*
X7527785Y5118798D01*
X7532357Y5114226D01*
X7536929Y5100256D01*
X7536929Y5086540D01*
X7532357Y5072570D01*
X7522959Y5063426D01*
X7509243Y5058854D01*
X7500099Y5058854D01*
X7486129Y5063426D01*
X7476985Y5072570D01*
X7472159Y5086540D01*
X7472159Y5100256D01*
X7476985Y5114226D01*
X7481557Y5118798D01*
X7490701Y5123370D01*
X7315187Y5258244D02*
G01*
X7218159Y5258244D01*
X7315187Y5200078D02*
G01*
X7310615Y5209222D01*
X7301471Y5218620D01*
X7292073Y5223192D01*
X7278357Y5227764D01*
X7255243Y5227764D01*
X7241273Y5223192D01*
X7232129Y5218620D01*
X7222985Y5209222D01*
X7218159Y5200078D01*
X7218159Y5181536D01*
X7222985Y5172392D01*
X7232129Y5163248D01*
X7241273Y5158422D01*
X7255243Y5153850D01*
X7278357Y5153850D01*
X7292073Y5158422D01*
X7301471Y5163248D01*
X7310615Y5172392D01*
X7315187Y5181536D01*
X7315187Y5200078D01*
X7296899Y5123370D02*
G01*
X7301471Y5114226D01*
X7315187Y5100256D01*
X7218159Y5100256D01*
X7315187Y5046662D02*
G01*
X7310615Y5060632D01*
X7301471Y5065204D01*
X7292073Y5065204D01*
X7282929Y5060632D01*
X7278357Y5051488D01*
X7273785Y5032946D01*
X7268959Y5018976D01*
X7259815Y5009832D01*
X7250671Y5005260D01*
X7236701Y5005260D01*
X7227557Y5009832D01*
X7222985Y5014404D01*
X7218159Y5028374D01*
X7218159Y5046662D01*
X7222985Y5060632D01*
X7227557Y5065204D01*
X7236701Y5069776D01*
X7250671Y5069776D01*
X7259815Y5065204D01*
X7268959Y5056060D01*
X7273785Y5042090D01*
X7278357Y5023548D01*
X7282929Y5014404D01*
X7292073Y5009832D01*
X7301471Y5009832D01*
X7310615Y5014404D01*
X7315187Y5028374D01*
X7315187Y5046662D01*
X7061187Y5258244D02*
G01*
X6964159Y5258244D01*
X7061187Y5200078D02*
G01*
X7056615Y5209222D01*
X7047471Y5218620D01*
X7038073Y5223192D01*
X7024357Y5227764D01*
X7001243Y5227764D01*
X6987273Y5223192D01*
X6978129Y5218620D01*
X6968985Y5209222D01*
X6964159Y5200078D01*
X6964159Y5181536D01*
X6968985Y5172392D01*
X6978129Y5163248D01*
X6987273Y5158422D01*
X7001243Y5153850D01*
X7024357Y5153850D01*
X7038073Y5158422D01*
X7047471Y5163248D01*
X7056615Y5172392D01*
X7061187Y5181536D01*
X7061187Y5200078D01*
X7042899Y5123370D02*
G01*
X7047471Y5114226D01*
X7061187Y5100256D01*
X6964159Y5100256D01*
X7028929Y5009832D02*
G01*
X7014959Y5014404D01*
X7005815Y5023548D01*
X7001243Y5037518D01*
X7001243Y5042090D01*
X7005815Y5056060D01*
X7014959Y5065204D01*
X7028929Y5069776D01*
X7033501Y5069776D01*
X7047471Y5065204D01*
X7056615Y5056060D01*
X7061187Y5042090D01*
X7061187Y5037518D01*
X7056615Y5023548D01*
X7047471Y5014404D01*
X7028929Y5009832D01*
X7005815Y5009832D01*
X6982701Y5014404D01*
X6968985Y5023548D01*
X6964159Y5037518D01*
X6964159Y5046662D01*
X6968985Y5060632D01*
X6978129Y5065204D01*
X6807187Y5258244D02*
G01*
X6710159Y5258244D01*
X6807187Y5200078D02*
G01*
X6802615Y5209222D01*
X6793471Y5218620D01*
X6784073Y5223192D01*
X6770357Y5227764D01*
X6747243Y5227764D01*
X6733273Y5223192D01*
X6724129Y5218620D01*
X6714985Y5209222D01*
X6710159Y5200078D01*
X6710159Y5181536D01*
X6714985Y5172392D01*
X6724129Y5163248D01*
X6733273Y5158422D01*
X6747243Y5153850D01*
X6770357Y5153850D01*
X6784073Y5158422D01*
X6793471Y5163248D01*
X6802615Y5172392D01*
X6807187Y5181536D01*
X6807187Y5200078D01*
X6784073Y5118798D02*
G01*
X6788899Y5118798D01*
X6798043Y5114226D01*
X6802615Y5109654D01*
X6807187Y5100256D01*
X6807187Y5081968D01*
X6802615Y5072570D01*
X6798043Y5067998D01*
X6788899Y5063426D01*
X6779501Y5063426D01*
X6770357Y5067998D01*
X6756387Y5077142D01*
X6710159Y5123370D01*
X6710159Y5058854D01*
X6788899Y5028374D02*
G01*
X6793471Y5018976D01*
X6807187Y5005260D01*
X6710159Y5005260D01*
X6553187Y5258244D02*
G01*
X6456159Y5258244D01*
X6553187Y5200078D02*
G01*
X6548615Y5209222D01*
X6539471Y5218620D01*
X6530073Y5223192D01*
X6516357Y5227764D01*
X6493243Y5227764D01*
X6479273Y5223192D01*
X6470129Y5218620D01*
X6460985Y5209222D01*
X6456159Y5200078D01*
X6456159Y5181536D01*
X6460985Y5172392D01*
X6470129Y5163248D01*
X6479273Y5158422D01*
X6493243Y5153850D01*
X6516357Y5153850D01*
X6530073Y5158422D01*
X6539471Y5163248D01*
X6548615Y5172392D01*
X6553187Y5181536D01*
X6553187Y5200078D01*
X6553187Y5114226D02*
G01*
X6553187Y5063426D01*
X6516357Y5091112D01*
X6516357Y5077142D01*
X6511785Y5067998D01*
X6506959Y5063426D01*
X6493243Y5058854D01*
X6484099Y5058854D01*
X6470129Y5063426D01*
X6460985Y5072570D01*
X6456159Y5086540D01*
X6456159Y5100256D01*
X6460985Y5114226D01*
X6465557Y5118798D01*
X6474701Y5123370D01*
X6299187Y5258244D02*
G01*
X6202159Y5258244D01*
X6299187Y5200078D02*
G01*
X6294615Y5209222D01*
X6285471Y5218620D01*
X6276073Y5223192D01*
X6262357Y5227764D01*
X6239243Y5227764D01*
X6225273Y5223192D01*
X6216129Y5218620D01*
X6206985Y5209222D01*
X6202159Y5200078D01*
X6202159Y5181536D01*
X6206985Y5172392D01*
X6216129Y5163248D01*
X6225273Y5158422D01*
X6239243Y5153850D01*
X6262357Y5153850D01*
X6276073Y5158422D01*
X6285471Y5163248D01*
X6294615Y5172392D01*
X6299187Y5181536D01*
X6299187Y5200078D01*
X6280899Y5123370D02*
G01*
X6285471Y5114226D01*
X6299187Y5100256D01*
X6202159Y5100256D01*
X6045187Y5258244D02*
G01*
X5948159Y5258244D01*
X6045187Y5200078D02*
G01*
X6040615Y5209222D01*
X6031471Y5218620D01*
X6022073Y5223192D01*
X6008357Y5227764D01*
X5985243Y5227764D01*
X5971273Y5223192D01*
X5962129Y5218620D01*
X5952985Y5209222D01*
X5948159Y5200078D01*
X5948159Y5181536D01*
X5952985Y5172392D01*
X5962129Y5163248D01*
X5971273Y5158422D01*
X5985243Y5153850D01*
X6008357Y5153850D01*
X6022073Y5158422D01*
X6031471Y5163248D01*
X6040615Y5172392D01*
X6045187Y5181536D01*
X6045187Y5200078D01*
X6022073Y5118798D02*
G01*
X6026899Y5118798D01*
X6036043Y5114226D01*
X6040615Y5109654D01*
X6045187Y5100256D01*
X6045187Y5081968D01*
X6040615Y5072570D01*
X6036043Y5067998D01*
X6026899Y5063426D01*
X6017501Y5063426D01*
X6008357Y5067998D01*
X5994387Y5077142D01*
X5948159Y5123370D01*
X5948159Y5058854D01*
X6022073Y5023548D02*
G01*
X6026899Y5023548D01*
X6036043Y5018976D01*
X6040615Y5014404D01*
X6045187Y5005260D01*
X6045187Y4986718D01*
X6040615Y4977574D01*
X6036043Y4972748D01*
X6026899Y4968176D01*
X6017501Y4968176D01*
X6008357Y4972748D01*
X5994387Y4982146D01*
X5948159Y5028374D01*
X5948159Y4963604D01*
X5791187Y5258244D02*
G01*
X5694159Y5258244D01*
X5791187Y5200078D02*
G01*
X5786615Y5209222D01*
X5777471Y5218620D01*
X5768073Y5223192D01*
X5754357Y5227764D01*
X5731243Y5227764D01*
X5717273Y5223192D01*
X5708129Y5218620D01*
X5698985Y5209222D01*
X5694159Y5200078D01*
X5694159Y5181536D01*
X5698985Y5172392D01*
X5708129Y5163248D01*
X5717273Y5158422D01*
X5731243Y5153850D01*
X5754357Y5153850D01*
X5768073Y5158422D01*
X5777471Y5163248D01*
X5786615Y5172392D01*
X5791187Y5181536D01*
X5791187Y5200078D01*
X5768073Y5118798D02*
G01*
X5772899Y5118798D01*
X5782043Y5114226D01*
X5786615Y5109654D01*
X5791187Y5100256D01*
X5791187Y5081968D01*
X5786615Y5072570D01*
X5782043Y5067998D01*
X5772899Y5063426D01*
X5763501Y5063426D01*
X5754357Y5067998D01*
X5740387Y5077142D01*
X5694159Y5123370D01*
X5694159Y5058854D01*
X5791187Y5018976D02*
G01*
X5791187Y4968176D01*
X5754357Y4995862D01*
X5754357Y4982146D01*
X5749785Y4972748D01*
X5744959Y4968176D01*
X5731243Y4963604D01*
X5722099Y4963604D01*
X5708129Y4968176D01*
X5698985Y4977574D01*
X5694159Y4991290D01*
X5694159Y5005260D01*
X5698985Y5018976D01*
X5703557Y5023548D01*
X5712701Y5028374D01*
X9345358Y3486238D02*
G01*
X9248330Y3449408D01*
X9345358Y3412324D02*
G01*
X9248330Y3449408D01*
X9345358Y3381844D02*
G01*
X9248330Y3381844D01*
X9345358Y3351364D02*
G01*
X9248330Y3351364D01*
X9345358Y3351364D02*
G01*
X9248330Y3286848D01*
X9345358Y3286848D02*
G01*
X9248330Y3286848D01*
X9068244Y3416896D02*
G01*
X9077388Y3421722D01*
X9086532Y3430866D01*
X9091358Y3440010D01*
X9091358Y3458552D01*
X9086532Y3467696D01*
X9077388Y3477094D01*
X9068244Y3481666D01*
X9054274Y3486238D01*
X9031160Y3486238D01*
X9017444Y3481666D01*
X9008046Y3477094D01*
X8998902Y3467696D01*
X8994330Y3458552D01*
X8994330Y3440010D01*
X8998902Y3430866D01*
X9008046Y3421722D01*
X9017444Y3416896D01*
X9031160Y3416896D01*
X9031160Y3440010D02*
G01*
X9031160Y3416896D01*
X9091358Y3386416D02*
G01*
X8994330Y3386416D01*
X9091358Y3386416D02*
G01*
X8994330Y3321900D01*
X9091358Y3321900D02*
G01*
X8994330Y3321900D01*
X9091358Y3291420D02*
G01*
X8994330Y3291420D01*
X9091358Y3291420D02*
G01*
X9091358Y3259162D01*
X9086532Y3245192D01*
X9077388Y3236048D01*
X9068244Y3231476D01*
X9054274Y3226650D01*
X9031160Y3226650D01*
X9017444Y3231476D01*
X9008046Y3236048D01*
X8998902Y3245192D01*
X8994330Y3259162D01*
X8994330Y3291420D01*
X8837358Y3486238D02*
G01*
X8740330Y3486238D01*
X8837358Y3428072D02*
G01*
X8832532Y3437216D01*
X8823388Y3446614D01*
X8814244Y3451186D01*
X8800274Y3455758D01*
X8777160Y3455758D01*
X8763444Y3451186D01*
X8754046Y3446614D01*
X8744902Y3437216D01*
X8740330Y3428072D01*
X8740330Y3409530D01*
X8744902Y3400386D01*
X8754046Y3391242D01*
X8763444Y3386416D01*
X8777160Y3381844D01*
X8800274Y3381844D01*
X8814244Y3386416D01*
X8823388Y3391242D01*
X8832532Y3400386D01*
X8837358Y3409530D01*
X8837358Y3428072D01*
X8818816Y3351364D02*
G01*
X8823388Y3342220D01*
X8837358Y3328250D01*
X8740330Y3328250D01*
X8837358Y3288626D02*
G01*
X8837358Y3237826D01*
X8800274Y3265512D01*
X8800274Y3251796D01*
X8795702Y3242398D01*
X8791130Y3237826D01*
X8777160Y3233254D01*
X8768016Y3233254D01*
X8754046Y3237826D01*
X8744902Y3246970D01*
X8740330Y3260940D01*
X8740330Y3274656D01*
X8744902Y3288626D01*
X8749474Y3293198D01*
X8758618Y3297770D01*
X8583358Y3486238D02*
G01*
X8486330Y3486238D01*
X8583358Y3428072D02*
G01*
X8578532Y3437216D01*
X8569388Y3446614D01*
X8560244Y3451186D01*
X8546274Y3455758D01*
X8523160Y3455758D01*
X8509444Y3451186D01*
X8500046Y3446614D01*
X8490902Y3437216D01*
X8486330Y3428072D01*
X8486330Y3409530D01*
X8490902Y3400386D01*
X8500046Y3391242D01*
X8509444Y3386416D01*
X8523160Y3381844D01*
X8546274Y3381844D01*
X8560244Y3386416D01*
X8569388Y3391242D01*
X8578532Y3400386D01*
X8583358Y3409530D01*
X8583358Y3428072D01*
X8564816Y3351364D02*
G01*
X8569388Y3342220D01*
X8583358Y3328250D01*
X8486330Y3328250D01*
X8560244Y3293198D02*
G01*
X8564816Y3293198D01*
X8573960Y3288626D01*
X8578532Y3284054D01*
X8583358Y3274656D01*
X8583358Y3256368D01*
X8578532Y3246970D01*
X8573960Y3242398D01*
X8564816Y3237826D01*
X8555418Y3237826D01*
X8546274Y3242398D01*
X8532558Y3251796D01*
X8486330Y3297770D01*
X8486330Y3233254D01*
X8329358Y3486238D02*
G01*
X8232330Y3486238D01*
X8329358Y3428072D02*
G01*
X8324532Y3437216D01*
X8315388Y3446614D01*
X8306244Y3451186D01*
X8292274Y3455758D01*
X8269160Y3455758D01*
X8255444Y3451186D01*
X8246046Y3446614D01*
X8236902Y3437216D01*
X8232330Y3428072D01*
X8232330Y3409530D01*
X8236902Y3400386D01*
X8246046Y3391242D01*
X8255444Y3386416D01*
X8269160Y3381844D01*
X8292274Y3381844D01*
X8306244Y3386416D01*
X8315388Y3391242D01*
X8324532Y3400386D01*
X8329358Y3409530D01*
X8329358Y3428072D01*
X8310816Y3351364D02*
G01*
X8315388Y3342220D01*
X8329358Y3328250D01*
X8232330Y3328250D01*
X8329358Y3251796D02*
G01*
X8264588Y3297770D01*
X8264588Y3228682D01*
X8329358Y3251796D02*
G01*
X8232330Y3251796D01*
X8075358Y3486238D02*
G01*
X7978330Y3486238D01*
X8075358Y3428072D02*
G01*
X8070532Y3437216D01*
X8061388Y3446614D01*
X8052244Y3451186D01*
X8038274Y3455758D01*
X8015160Y3455758D01*
X8001444Y3451186D01*
X7992046Y3446614D01*
X7982902Y3437216D01*
X7978330Y3428072D01*
X7978330Y3409530D01*
X7982902Y3400386D01*
X7992046Y3391242D01*
X8001444Y3386416D01*
X8015160Y3381844D01*
X8038274Y3381844D01*
X8052244Y3386416D01*
X8061388Y3391242D01*
X8070532Y3400386D01*
X8075358Y3409530D01*
X8075358Y3428072D01*
X8052244Y3346792D02*
G01*
X8056816Y3346792D01*
X8065960Y3342220D01*
X8070532Y3337648D01*
X8075358Y3328250D01*
X8075358Y3309962D01*
X8070532Y3300564D01*
X8065960Y3295992D01*
X8056816Y3291420D01*
X8047418Y3291420D01*
X8038274Y3295992D01*
X8024558Y3305136D01*
X7978330Y3351364D01*
X7978330Y3286848D01*
X8075358Y3191598D02*
G01*
X7978330Y3237826D01*
X8075358Y3256368D02*
G01*
X8075358Y3191598D01*
X7821358Y3486238D02*
G01*
X7724330Y3486238D01*
X7821358Y3428072D02*
G01*
X7816532Y3437216D01*
X7807388Y3446614D01*
X7798244Y3451186D01*
X7784274Y3455758D01*
X7761160Y3455758D01*
X7747444Y3451186D01*
X7738046Y3446614D01*
X7728902Y3437216D01*
X7724330Y3428072D01*
X7724330Y3409530D01*
X7728902Y3400386D01*
X7738046Y3391242D01*
X7747444Y3386416D01*
X7761160Y3381844D01*
X7784274Y3381844D01*
X7798244Y3386416D01*
X7807388Y3391242D01*
X7816532Y3400386D01*
X7821358Y3409530D01*
X7821358Y3428072D01*
X7798244Y3346792D02*
G01*
X7802816Y3346792D01*
X7811960Y3342220D01*
X7816532Y3337648D01*
X7821358Y3328250D01*
X7821358Y3309962D01*
X7816532Y3300564D01*
X7811960Y3295992D01*
X7802816Y3291420D01*
X7793418Y3291420D01*
X7784274Y3295992D01*
X7770558Y3305136D01*
X7724330Y3351364D01*
X7724330Y3286848D01*
X7807388Y3200996D02*
G01*
X7816532Y3205568D01*
X7821358Y3219284D01*
X7821358Y3228682D01*
X7816532Y3242398D01*
X7802816Y3251796D01*
X7779702Y3256368D01*
X7756588Y3256368D01*
X7738046Y3251796D01*
X7728902Y3242398D01*
X7724330Y3228682D01*
X7724330Y3223856D01*
X7728902Y3210140D01*
X7738046Y3200996D01*
X7752016Y3196170D01*
X7756588Y3196170D01*
X7770558Y3200996D01*
X7779702Y3210140D01*
X7784274Y3223856D01*
X7784274Y3228682D01*
X7779702Y3242398D01*
X7770558Y3251796D01*
X7756588Y3256368D01*
X7567358Y3486238D02*
G01*
X7470330Y3486238D01*
X7567358Y3428072D02*
G01*
X7562532Y3437216D01*
X7553388Y3446614D01*
X7544244Y3451186D01*
X7530274Y3455758D01*
X7507160Y3455758D01*
X7493444Y3451186D01*
X7484046Y3446614D01*
X7474902Y3437216D01*
X7470330Y3428072D01*
X7470330Y3409530D01*
X7474902Y3400386D01*
X7484046Y3391242D01*
X7493444Y3386416D01*
X7507160Y3381844D01*
X7530274Y3381844D01*
X7544244Y3386416D01*
X7553388Y3391242D01*
X7562532Y3400386D01*
X7567358Y3409530D01*
X7567358Y3428072D01*
X7544244Y3346792D02*
G01*
X7548816Y3346792D01*
X7557960Y3342220D01*
X7562532Y3337648D01*
X7567358Y3328250D01*
X7567358Y3309962D01*
X7562532Y3300564D01*
X7557960Y3295992D01*
X7548816Y3291420D01*
X7539418Y3291420D01*
X7530274Y3295992D01*
X7516558Y3305136D01*
X7470330Y3351364D01*
X7470330Y3286848D01*
X7567358Y3200996D02*
G01*
X7567358Y3246970D01*
X7525702Y3251796D01*
X7530274Y3246970D01*
X7534846Y3233254D01*
X7534846Y3219284D01*
X7530274Y3205568D01*
X7521130Y3196170D01*
X7507160Y3191598D01*
X7498016Y3191598D01*
X7484046Y3196170D01*
X7474902Y3205568D01*
X7470330Y3219284D01*
X7470330Y3233254D01*
X7474902Y3246970D01*
X7479474Y3251796D01*
X7488618Y3256368D01*
X7313358Y3486238D02*
G01*
X7216330Y3486238D01*
X7313358Y3428072D02*
G01*
X7308532Y3437216D01*
X7299388Y3446614D01*
X7290244Y3451186D01*
X7276274Y3455758D01*
X7253160Y3455758D01*
X7239444Y3451186D01*
X7230046Y3446614D01*
X7220902Y3437216D01*
X7216330Y3428072D01*
X7216330Y3409530D01*
X7220902Y3400386D01*
X7230046Y3391242D01*
X7239444Y3386416D01*
X7253160Y3381844D01*
X7276274Y3381844D01*
X7290244Y3386416D01*
X7299388Y3391242D01*
X7308532Y3400386D01*
X7313358Y3409530D01*
X7313358Y3428072D01*
X7313358Y3342220D02*
G01*
X7313358Y3291420D01*
X7276274Y3319106D01*
X7276274Y3305136D01*
X7271702Y3295992D01*
X7267130Y3291420D01*
X7253160Y3286848D01*
X7244016Y3286848D01*
X7230046Y3291420D01*
X7220902Y3300564D01*
X7216330Y3314534D01*
X7216330Y3328250D01*
X7220902Y3342220D01*
X7225474Y3346792D01*
X7234618Y3351364D01*
X7313358Y3246970D02*
G01*
X7313358Y3196170D01*
X7276274Y3223856D01*
X7276274Y3210140D01*
X7271702Y3200996D01*
X7267130Y3196170D01*
X7253160Y3191598D01*
X7244016Y3191598D01*
X7230046Y3196170D01*
X7220902Y3205568D01*
X7216330Y3219284D01*
X7216330Y3233254D01*
X7220902Y3246970D01*
X7225474Y3251796D01*
X7234618Y3256368D01*
X7059358Y3486238D02*
G01*
X6962330Y3486238D01*
X7059358Y3428072D02*
G01*
X7054532Y3437216D01*
X7045388Y3446614D01*
X7036244Y3451186D01*
X7022274Y3455758D01*
X6999160Y3455758D01*
X6985444Y3451186D01*
X6976046Y3446614D01*
X6966902Y3437216D01*
X6962330Y3428072D01*
X6962330Y3409530D01*
X6966902Y3400386D01*
X6976046Y3391242D01*
X6985444Y3386416D01*
X6999160Y3381844D01*
X7022274Y3381844D01*
X7036244Y3386416D01*
X7045388Y3391242D01*
X7054532Y3400386D01*
X7059358Y3409530D01*
X7059358Y3428072D01*
X7059358Y3342220D02*
G01*
X7059358Y3291420D01*
X7022274Y3319106D01*
X7022274Y3305136D01*
X7017702Y3295992D01*
X7013130Y3291420D01*
X6999160Y3286848D01*
X6990016Y3286848D01*
X6976046Y3291420D01*
X6966902Y3300564D01*
X6962330Y3314534D01*
X6962330Y3328250D01*
X6966902Y3342220D01*
X6971474Y3346792D01*
X6980618Y3351364D01*
X7036244Y3251796D02*
G01*
X7040816Y3251796D01*
X7049960Y3246970D01*
X7054532Y3242398D01*
X7059358Y3233254D01*
X7059358Y3214712D01*
X7054532Y3205568D01*
X7049960Y3200996D01*
X7040816Y3196170D01*
X7031418Y3196170D01*
X7022274Y3200996D01*
X7008558Y3210140D01*
X6962330Y3256368D01*
X6962330Y3191598D01*
X6805358Y3486238D02*
G01*
X6708330Y3486238D01*
X6805358Y3428072D02*
G01*
X6800532Y3437216D01*
X6791388Y3446614D01*
X6782244Y3451186D01*
X6768274Y3455758D01*
X6745160Y3455758D01*
X6731444Y3451186D01*
X6722046Y3446614D01*
X6712902Y3437216D01*
X6708330Y3428072D01*
X6708330Y3409530D01*
X6712902Y3400386D01*
X6722046Y3391242D01*
X6731444Y3386416D01*
X6745160Y3381844D01*
X6768274Y3381844D01*
X6782244Y3386416D01*
X6791388Y3391242D01*
X6800532Y3400386D01*
X6805358Y3409530D01*
X6805358Y3428072D01*
X6805358Y3342220D02*
G01*
X6805358Y3291420D01*
X6768274Y3319106D01*
X6768274Y3305136D01*
X6763702Y3295992D01*
X6759130Y3291420D01*
X6745160Y3286848D01*
X6736016Y3286848D01*
X6722046Y3291420D01*
X6712902Y3300564D01*
X6708330Y3314534D01*
X6708330Y3328250D01*
X6712902Y3342220D01*
X6717474Y3346792D01*
X6726618Y3351364D01*
X6805358Y3200996D02*
G01*
X6805358Y3246970D01*
X6763702Y3251796D01*
X6768274Y3246970D01*
X6772846Y3233254D01*
X6772846Y3219284D01*
X6768274Y3205568D01*
X6759130Y3196170D01*
X6745160Y3191598D01*
X6736016Y3191598D01*
X6722046Y3196170D01*
X6712902Y3205568D01*
X6708330Y3219284D01*
X6708330Y3233254D01*
X6712902Y3246970D01*
X6717474Y3251796D01*
X6726618Y3256368D01*
X6551358Y3486238D02*
G01*
X6454330Y3486238D01*
X6551358Y3428072D02*
G01*
X6546532Y3437216D01*
X6537388Y3446614D01*
X6528244Y3451186D01*
X6514274Y3455758D01*
X6491160Y3455758D01*
X6477444Y3451186D01*
X6468046Y3446614D01*
X6458902Y3437216D01*
X6454330Y3428072D01*
X6454330Y3409530D01*
X6458902Y3400386D01*
X6468046Y3391242D01*
X6477444Y3386416D01*
X6491160Y3381844D01*
X6514274Y3381844D01*
X6528244Y3386416D01*
X6537388Y3391242D01*
X6546532Y3400386D01*
X6551358Y3409530D01*
X6551358Y3428072D01*
X6551358Y3342220D02*
G01*
X6551358Y3291420D01*
X6514274Y3319106D01*
X6514274Y3305136D01*
X6509702Y3295992D01*
X6505130Y3291420D01*
X6491160Y3286848D01*
X6482016Y3286848D01*
X6468046Y3291420D01*
X6458902Y3300564D01*
X6454330Y3314534D01*
X6454330Y3328250D01*
X6458902Y3342220D01*
X6463474Y3346792D01*
X6472618Y3351364D01*
X6551358Y3210140D02*
G01*
X6486588Y3256368D01*
X6486588Y3187026D01*
X6551358Y3210140D02*
G01*
X6454330Y3210140D01*
X6297358Y3486238D02*
G01*
X6200330Y3449408D01*
X6297358Y3412324D02*
G01*
X6200330Y3449408D01*
X6297358Y3381844D02*
G01*
X6200330Y3381844D01*
X6297358Y3381844D02*
G01*
X6200330Y3317328D01*
X6297358Y3317328D02*
G01*
X6200330Y3317328D01*
X6043358Y3486238D02*
G01*
X5946330Y3449408D01*
X6043358Y3412324D02*
G01*
X5946330Y3449408D01*
X6043358Y3381844D02*
G01*
X5946330Y3381844D01*
X6043358Y3381844D02*
G01*
X6043358Y3340442D01*
X6038532Y3326472D01*
X6033960Y3321900D01*
X6024816Y3317328D01*
X6010846Y3317328D01*
X6001702Y3321900D01*
X5997130Y3326472D01*
X5992558Y3340442D01*
X5992558Y3381844D01*
X5789358Y3486238D02*
G01*
X5692330Y3486238D01*
X5789358Y3486238D02*
G01*
X5789358Y3426294D01*
X5743130Y3486238D02*
G01*
X5743130Y3449408D01*
X5692330Y3486238D02*
G01*
X5692330Y3426294D01*
X5789358Y3395814D02*
G01*
X5692330Y3395814D01*
X5789358Y3395814D02*
G01*
X5692330Y3331044D01*
X5789358Y3331044D02*
G01*
X5692330Y3331044D01*
D13*
X8813812Y3856469D02*
G01*
X8813812Y4040873D01*
X8813812Y3856469D02*
G01*
X8699766Y3856469D01*
X8813812Y3944353D02*
G01*
X8743708Y3944353D01*
X8813812Y4040873D02*
G01*
X8699766Y4040873D01*
X8518918Y3882885D02*
G01*
X8536444Y3865359D01*
X8562860Y3856469D01*
X8597912Y3856469D01*
X8624328Y3865359D01*
X8641854Y3882885D01*
X8641854Y3900411D01*
X8632964Y3917937D01*
X8624328Y3926573D01*
X8606802Y3935463D01*
X8553970Y3952989D01*
X8536444Y3961879D01*
X8527808Y3970515D01*
X8518918Y3988041D01*
X8518918Y4014457D01*
X8536444Y4031983D01*
X8562860Y4040873D01*
X8597912Y4040873D01*
X8624328Y4031983D01*
X8641854Y4014457D01*
X8461006Y3856469D02*
G01*
X8461006Y4040873D01*
X8461006Y3856469D02*
G01*
X8382012Y3856469D01*
X8355850Y3865359D01*
X8346960Y3873995D01*
X8338324Y3891521D01*
X8338324Y3917937D01*
X8346960Y3935463D01*
X8355850Y3944353D01*
X8382012Y3952989D01*
X8461006Y3952989D01*
X8262632Y3856469D02*
G01*
X8166112Y3856469D01*
X8218944Y3926573D01*
X8192528Y3926573D01*
X8175002Y3935463D01*
X8166112Y3944353D01*
X8157476Y3970515D01*
X8157476Y3988041D01*
X8166112Y4014457D01*
X8183892Y4031983D01*
X8210054Y4040873D01*
X8236470Y4040873D01*
X8262632Y4031983D01*
X8271522Y4023093D01*
X8280412Y4005567D01*
X8090674Y3900411D02*
G01*
X8090674Y3891521D01*
X8082038Y3873995D01*
X8073148Y3865359D01*
X8055622Y3856469D01*
X8020570Y3856469D01*
X8003044Y3865359D01*
X7994154Y3873995D01*
X7985518Y3891521D01*
X7985518Y3909047D01*
X7994154Y3926573D01*
X8011680Y3952989D01*
X8099564Y4040873D01*
X7976628Y4040873D01*
X7918716Y3961879D02*
G01*
X7760728Y3961879D01*
X7702816Y3856469D02*
G01*
X7702816Y4040873D01*
X7702816Y3856469D02*
G01*
X7641602Y3856469D01*
X7615186Y3865359D01*
X7597660Y3882885D01*
X7588770Y3900411D01*
X7580134Y3926573D01*
X7580134Y3970515D01*
X7588770Y3996931D01*
X7597660Y4014457D01*
X7615186Y4031983D01*
X7641602Y4040873D01*
X7702816Y4040873D01*
X7522222Y3970515D02*
G01*
X7416812Y3970515D01*
X7416812Y3952989D01*
X7425702Y3935463D01*
X7434338Y3926573D01*
X7451864Y3917937D01*
X7478280Y3917937D01*
X7495806Y3926573D01*
X7513332Y3944353D01*
X7522222Y3970515D01*
X7522222Y3988041D01*
X7513332Y4014457D01*
X7495806Y4031983D01*
X7478280Y4040873D01*
X7451864Y4040873D01*
X7434338Y4031983D01*
X7416812Y4014457D01*
X7358900Y3917937D02*
G01*
X7306322Y4040873D01*
X7253744Y3917937D02*
G01*
X7306322Y4040873D01*
X7195832Y3856469D02*
G01*
X7195832Y4040873D01*
X7107948Y3917937D02*
G01*
X7195832Y4005567D01*
X7160780Y3970515D02*
G01*
X7099312Y4040873D01*
X7041400Y3856469D02*
G01*
X7032510Y3865359D01*
X7023874Y3856469D01*
X7032510Y3847833D01*
X7041400Y3856469D01*
X7032510Y3917937D02*
G01*
X7032510Y4040873D01*
X6939546Y3856469D02*
G01*
X6939546Y4005567D01*
X6930656Y4031983D01*
X6913130Y4040873D01*
X6895604Y4040873D01*
X6965962Y3917937D02*
G01*
X6904494Y3917937D01*
X6702564Y3856469D02*
G01*
X6632460Y4040873D01*
X6562356Y3856469D02*
G01*
X6632460Y4040873D01*
X6504444Y3891521D02*
G01*
X6486664Y3882885D01*
X6460502Y3856469D01*
X6460502Y4040873D01*
X5415140Y4753978D02*
G01*
X5230736Y4824082D01*
X5415140Y4753978D02*
G01*
X5230736Y4683620D01*
X5292204Y4797666D02*
G01*
X5292204Y4710036D01*
X5353672Y4625708D02*
G01*
X5230736Y4625708D01*
X5318620Y4625708D02*
G01*
X5345036Y4599546D01*
X5353672Y4582020D01*
X5353672Y4555604D01*
X5345036Y4538078D01*
X5318620Y4529188D01*
X5230736Y4529188D01*
X5415140Y4445114D02*
G01*
X5266042Y4445114D01*
X5239626Y4436224D01*
X5230736Y4418698D01*
X5230736Y4401172D01*
X5353672Y4471276D02*
G01*
X5353672Y4409808D01*
X5301094Y4343260D02*
G01*
X5301094Y4237850D01*
X5318620Y4237850D01*
X5336146Y4246740D01*
X5345036Y4255376D01*
X5353672Y4273156D01*
X5353672Y4299318D01*
X5345036Y4316844D01*
X5327256Y4334370D01*
X5301094Y4343260D01*
X5283568Y4343260D01*
X5257152Y4334370D01*
X5239626Y4316844D01*
X5230736Y4299318D01*
X5230736Y4273156D01*
X5239626Y4255376D01*
X5257152Y4237850D01*
X5353672Y4179938D02*
G01*
X5230736Y4179938D01*
X5318620Y4179938D02*
G01*
X5345036Y4153776D01*
X5353672Y4136250D01*
X5353672Y4109834D01*
X5345036Y4092308D01*
X5318620Y4083418D01*
X5230736Y4083418D01*
X5353672Y4025506D02*
G01*
X5230736Y4025506D01*
X5318620Y4025506D02*
G01*
X5345036Y3999344D01*
X5353672Y3981818D01*
X5353672Y3955402D01*
X5345036Y3937876D01*
X5318620Y3928986D01*
X5230736Y3928986D01*
X5353672Y3765918D02*
G01*
X5230736Y3765918D01*
X5327256Y3765918D02*
G01*
X5345036Y3783444D01*
X5353672Y3800970D01*
X5353672Y3827386D01*
X5345036Y3844912D01*
X5327256Y3862438D01*
X5301094Y3871074D01*
X5283568Y3871074D01*
X5257152Y3862438D01*
X5239626Y3844912D01*
X5230736Y3827386D01*
X5230736Y3800970D01*
X5239626Y3783444D01*
X5257152Y3765918D01*
D10*
X8484108Y811021D02*
G01*
X8494522Y816355D01*
X8504936Y826770D01*
X8510015Y836929D01*
X8510015Y857757D01*
X8504936Y868171D01*
X8494522Y878586D01*
X8484108Y883920D01*
X8468359Y889000D01*
X8442452Y889000D01*
X8426958Y883920D01*
X8416543Y878586D01*
X8406129Y868171D01*
X8401050Y857757D01*
X8401050Y836929D01*
X8406129Y826770D01*
X8416543Y816355D01*
X8426958Y811021D01*
X8489188Y776731D02*
G01*
X8494522Y766318D01*
X8510015Y750823D01*
X8401050Y750823D01*
X9678415Y914400D02*
G01*
X9569450Y914400D01*
X9678415Y841755D02*
G01*
X9569450Y841755D01*
X9626600Y914400D02*
G01*
X9626600Y841755D01*
X9657588Y807465D02*
G01*
X9662922Y797052D01*
X9678415Y781304D01*
X9569450Y781304D01*
X9396984Y863600D02*
G01*
X9505950Y863600D01*
X9396984Y936244D02*
G01*
X9505950Y936244D01*
X9448800Y863600D02*
G01*
X9448800Y936244D01*
X9422891Y975868D02*
G01*
X9417811Y975868D01*
X9407397Y980947D01*
X9402063Y986281D01*
X9396984Y996695D01*
X9396984Y1017270D01*
X9402063Y1027684D01*
X9407397Y1033018D01*
X9417811Y1038097D01*
X9428225Y1038097D01*
X9438640Y1033018D01*
X9454134Y1022604D01*
X9505950Y970534D01*
X9505950Y1043431D01*
X8888984Y863600D02*
G01*
X8997950Y863600D01*
X8888984Y936244D02*
G01*
X8997950Y936244D01*
X8940800Y863600D02*
G01*
X8940800Y936244D01*
X8888984Y980947D02*
G01*
X8888984Y1038097D01*
X8930640Y1007110D01*
X8930640Y1022604D01*
X8935720Y1033018D01*
X8940800Y1038097D01*
X8956547Y1043431D01*
X8966961Y1043431D01*
X8982456Y1038097D01*
X8992870Y1027684D01*
X8997950Y1012189D01*
X8997950Y996695D01*
X8992870Y980947D01*
X8987790Y975868D01*
X8977375Y970534D01*
X10491215Y508000D02*
G01*
X10382250Y508000D01*
X10491215Y435355D02*
G01*
X10382250Y435355D01*
X10439400Y508000D02*
G01*
X10439400Y435355D01*
X10491215Y338581D02*
G01*
X10491215Y390652D01*
X10444479Y395731D01*
X10449559Y390652D01*
X10454893Y374904D01*
X10454893Y359410D01*
X10449559Y343915D01*
X10439400Y333502D01*
X10423652Y328168D01*
X10413238Y328168D01*
X10397743Y333502D01*
X10387329Y343915D01*
X10382250Y359410D01*
X10382250Y374904D01*
X10387329Y390652D01*
X10392409Y395731D01*
X10402824Y401065D01*
X7454900Y6262115D02*
G01*
X7454900Y6153150D01*
X7527543Y6262115D02*
G01*
X7527543Y6153150D01*
X7454900Y6210300D02*
G01*
X7527543Y6210300D01*
X7613904Y6262115D02*
G01*
X7561834Y6189471D01*
X7639811Y6189471D01*
X7613904Y6262115D02*
G01*
X7613904Y6153150D01*
X7505700Y2221484D02*
G01*
X7505700Y2330450D01*
X7433056Y2221484D02*
G01*
X7433056Y2330450D01*
X7505700Y2273300D02*
G01*
X7433056Y2273300D01*
X7336281Y2236978D02*
G01*
X7341615Y2226563D01*
X7357109Y2221484D01*
X7367524Y2221484D01*
X7383018Y2226563D01*
X7393431Y2242312D01*
X7398765Y2268220D01*
X7398765Y2294128D01*
X7393431Y2314955D01*
X7383018Y2325370D01*
X7367524Y2330450D01*
X7362190Y2330450D01*
X7346695Y2325370D01*
X7336281Y2314955D01*
X7331202Y2299462D01*
X7331202Y2294128D01*
X7336281Y2278634D01*
X7346695Y2268220D01*
X7362190Y2263139D01*
X7367524Y2263139D01*
X7383018Y2268220D01*
X7393431Y2278634D01*
X7398765Y2294128D01*
X4877815Y5829300D02*
G01*
X4799838Y5829300D01*
X4784343Y5824220D01*
X4773929Y5813805D01*
X4768850Y5798057D01*
X4768850Y5787644D01*
X4773929Y5772150D01*
X4784343Y5761736D01*
X4799838Y5756655D01*
X4877815Y5756655D01*
X4856988Y5722365D02*
G01*
X4862322Y5711952D01*
X4877815Y5696204D01*
X4768850Y5696204D01*
X2705100Y3737914D02*
G01*
X2705100Y3659936D01*
X2710179Y3644442D01*
X2720593Y3634028D01*
X2736341Y3628948D01*
X2746756Y3628948D01*
X2762250Y3634028D01*
X2772663Y3644442D01*
X2777743Y3659936D01*
X2777743Y3737914D01*
X2817368Y3712006D02*
G01*
X2817368Y3717086D01*
X2822447Y3727500D01*
X2827781Y3732834D01*
X2838195Y3737914D01*
X2858770Y3737914D01*
X2869184Y3732834D01*
X2874518Y3727500D01*
X2879597Y3717086D01*
X2879597Y3706672D01*
X2874518Y3696258D01*
X2864104Y3680764D01*
X2812034Y3628948D01*
X2884931Y3628948D01*
X1473200Y3656584D02*
G01*
X1473200Y3734562D01*
X1468120Y3750055D01*
X1457705Y3760470D01*
X1441957Y3765550D01*
X1431544Y3765550D01*
X1416050Y3760470D01*
X1405636Y3750055D01*
X1400555Y3734562D01*
X1400555Y3656584D01*
X1355852Y3656584D02*
G01*
X1298702Y3656584D01*
X1329689Y3698239D01*
X1314195Y3698239D01*
X1303781Y3703320D01*
X1298702Y3708400D01*
X1293368Y3724147D01*
X1293368Y3734562D01*
X1298702Y3750055D01*
X1309115Y3760470D01*
X1324610Y3765550D01*
X1340104Y3765550D01*
X1355852Y3760470D01*
X1360931Y3755389D01*
X1366265Y3744976D01*
D14*
X2463800Y4275836D02*
G01*
X2416556Y4399787D01*
X2369311Y4275836D02*
G01*
X2416556Y4399787D01*
X2241550Y4305300D02*
G01*
X2247645Y4293362D01*
X2259329Y4281678D01*
X2271268Y4275836D01*
X2294890Y4275836D01*
X2306574Y4281678D01*
X2318511Y4293362D01*
X2324354Y4305300D01*
X2330195Y4323079D01*
X2330195Y4352544D01*
X2324354Y4370323D01*
X2318511Y4382007D01*
X2306574Y4393945D01*
X2294890Y4399787D01*
X2271268Y4399787D01*
X2259329Y4393945D01*
X2247645Y4382007D01*
X2241550Y4370323D01*
X2114041Y4305300D02*
G01*
X2119884Y4293362D01*
X2131822Y4281678D01*
X2143506Y4275836D01*
X2167127Y4275836D01*
X2179065Y4281678D01*
X2190750Y4293362D01*
X2196591Y4305300D01*
X2202688Y4323079D01*
X2202688Y4352544D01*
X2196591Y4370323D01*
X2190750Y4382007D01*
X2179065Y4393945D01*
X2167127Y4399787D01*
X2143506Y4399787D01*
X2131822Y4393945D01*
X2119884Y4382007D01*
X2114041Y4370323D01*
X2375154Y4559300D02*
G01*
X2380995Y4547362D01*
X2392934Y4535678D01*
X2404618Y4529836D01*
X2428240Y4529836D01*
X2440177Y4535678D01*
X2451861Y4547362D01*
X2457958Y4559300D01*
X2463800Y4577079D01*
X2463800Y4606544D01*
X2457958Y4624323D01*
X2451861Y4636007D01*
X2440177Y4647945D01*
X2428240Y4653787D01*
X2404618Y4653787D01*
X2392934Y4647945D01*
X2380995Y4636007D01*
X2375154Y4624323D01*
X2375154Y4606544D01*
X2404618Y4606544D02*
G01*
X2375154Y4606544D01*
X2336038Y4529836D02*
G01*
X2336038Y4653787D01*
X2336038Y4529836D02*
G01*
X2253488Y4653787D01*
X2253488Y4529836D02*
G01*
X2253488Y4653787D01*
X2214372Y4529836D02*
G01*
X2214372Y4653787D01*
X2214372Y4529836D02*
G01*
X2172970Y4529836D01*
X2155443Y4535678D01*
X2143506Y4547362D01*
X2137663Y4559300D01*
X2131822Y4577079D01*
X2131822Y4606544D01*
X2137663Y4624323D01*
X2143506Y4636007D01*
X2155443Y4647945D01*
X2172970Y4653787D01*
X2214372Y4653787D01*
X2380995Y4801362D02*
G01*
X2392934Y4789678D01*
X2410713Y4783836D01*
X2434336Y4783836D01*
X2451861Y4789678D01*
X2463800Y4801362D01*
X2463800Y4813300D01*
X2457958Y4824984D01*
X2451861Y4831079D01*
X2440177Y4836921D01*
X2404618Y4848605D01*
X2392934Y4854702D01*
X2387091Y4860544D01*
X2380995Y4872228D01*
X2380995Y4890007D01*
X2392934Y4901945D01*
X2410713Y4907787D01*
X2434336Y4907787D01*
X2451861Y4901945D01*
X2463800Y4890007D01*
X2342134Y4783836D02*
G01*
X2342134Y4907787D01*
X2342134Y4783836D02*
G01*
X2300731Y4783836D01*
X2282952Y4789678D01*
X2271268Y4801362D01*
X2265172Y4813300D01*
X2259329Y4831079D01*
X2259329Y4860544D01*
X2265172Y4878323D01*
X2271268Y4890007D01*
X2282952Y4901945D01*
X2300731Y4907787D01*
X2342134Y4907787D01*
X2172970Y4783836D02*
G01*
X2220468Y4907787D01*
X2172970Y4783836D02*
G01*
X2125725Y4907787D01*
X2202688Y4866386D02*
G01*
X2143506Y4866386D01*
X2380995Y5055362D02*
G01*
X2392934Y5043678D01*
X2410713Y5037836D01*
X2434336Y5037836D01*
X2451861Y5043678D01*
X2463800Y5055362D01*
X2463800Y5067300D01*
X2457958Y5078984D01*
X2451861Y5085079D01*
X2440177Y5090921D01*
X2404618Y5102605D01*
X2392934Y5108702D01*
X2387091Y5114544D01*
X2380995Y5126228D01*
X2380995Y5144007D01*
X2392934Y5155945D01*
X2410713Y5161787D01*
X2434336Y5161787D01*
X2451861Y5155945D01*
X2463800Y5144007D01*
X2253488Y5067300D02*
G01*
X2259329Y5055362D01*
X2271268Y5043678D01*
X2282952Y5037836D01*
X2306574Y5037836D01*
X2318511Y5043678D01*
X2330195Y5055362D01*
X2336038Y5067300D01*
X2342134Y5085079D01*
X2342134Y5114544D01*
X2336038Y5132323D01*
X2330195Y5144007D01*
X2318511Y5155945D01*
X2306574Y5161787D01*
X2282952Y5161787D01*
X2271268Y5155945D01*
X2259329Y5144007D01*
X2253488Y5132323D01*
X2214372Y5037836D02*
G01*
X2214372Y5161787D01*
X2214372Y5161787D02*
G01*
X2143506Y5161787D01*
X2416556Y5291836D02*
G01*
X2463800Y5415787D01*
X2416556Y5291836D02*
G01*
X2369311Y5415787D01*
X2446020Y5374386D02*
G01*
X2387091Y5374386D01*
X2330195Y5291836D02*
G01*
X2330195Y5415787D01*
X2330195Y5415787D02*
G01*
X2259329Y5415787D01*
X2220468Y5291836D02*
G01*
X2220468Y5415787D01*
X2220468Y5291836D02*
G01*
X2172970Y5415787D01*
X2125725Y5291836D02*
G01*
X2172970Y5415787D01*
X2125725Y5291836D02*
G01*
X2125725Y5415787D01*
X1066800Y3996436D02*
G01*
X1066800Y4120387D01*
X1027684Y4037584D02*
G01*
X1027684Y4120387D01*
X1027684Y4061205D02*
G01*
X1010157Y4043679D01*
X998220Y4037584D01*
X980439Y4037584D01*
X968755Y4043679D01*
X962913Y4061205D01*
X962913Y4120387D01*
X779526Y4013962D02*
G01*
X779526Y4120387D01*
X832865Y4067302D02*
G01*
X726439Y4067302D01*
X1066800Y4529836D02*
G01*
X1066800Y4653787D01*
X1027684Y4570984D02*
G01*
X1027684Y4653787D01*
X1027684Y4594605D02*
G01*
X1010157Y4577079D01*
X998220Y4570984D01*
X980439Y4570984D01*
X968755Y4577079D01*
X962913Y4594605D01*
X962913Y4653787D01*
X832865Y4600702D02*
G01*
X726439Y4600702D01*
X1183639Y5037836D02*
G01*
X1195578Y5043678D01*
X1207262Y5055362D01*
X1213357Y5067300D01*
X1219200Y5085079D01*
X1219200Y5114544D01*
X1213357Y5132323D01*
X1207262Y5144007D01*
X1195578Y5155945D01*
X1183639Y5161787D01*
X1160018Y5161787D01*
X1148334Y5155945D01*
X1136395Y5144007D01*
X1130554Y5132323D01*
X1124712Y5114544D01*
X1124712Y5085079D01*
X1130554Y5067300D01*
X1136395Y5055362D01*
X1148334Y5043678D01*
X1160018Y5037836D01*
X1183639Y5037836D01*
X1085595Y5078984D02*
G01*
X1085595Y5138165D01*
X1079754Y5155945D01*
X1067815Y5161787D01*
X1050289Y5161787D01*
X1038352Y5155945D01*
X1020571Y5138165D01*
X1020571Y5078984D02*
G01*
X1020571Y5161787D01*
X963929Y5037836D02*
G01*
X963929Y5138165D01*
X958087Y5155945D01*
X946150Y5161787D01*
X934465Y5161787D01*
X981710Y5078984D02*
G01*
X940307Y5078984D01*
X804418Y5108702D02*
G01*
X697992Y5108702D01*
X1183639Y5545836D02*
G01*
X1195578Y5551678D01*
X1207262Y5563362D01*
X1213357Y5575300D01*
X1219200Y5593079D01*
X1219200Y5622544D01*
X1213357Y5640323D01*
X1207262Y5652007D01*
X1195578Y5663945D01*
X1183639Y5669787D01*
X1160018Y5669787D01*
X1148334Y5663945D01*
X1136395Y5652007D01*
X1130554Y5640323D01*
X1124712Y5622544D01*
X1124712Y5593079D01*
X1130554Y5575300D01*
X1136395Y5563362D01*
X1148334Y5551678D01*
X1160018Y5545836D01*
X1183639Y5545836D01*
X1085595Y5586984D02*
G01*
X1085595Y5646165D01*
X1079754Y5663945D01*
X1067815Y5669787D01*
X1050289Y5669787D01*
X1038352Y5663945D01*
X1020571Y5646165D01*
X1020571Y5586984D02*
G01*
X1020571Y5669787D01*
X963929Y5545836D02*
G01*
X963929Y5646165D01*
X958087Y5663945D01*
X946150Y5669787D01*
X934465Y5669787D01*
X981710Y5586984D02*
G01*
X940307Y5586984D01*
X751078Y5563362D02*
G01*
X751078Y5669787D01*
X804418Y5616702D02*
G01*
X697992Y5616702D01*
X1955800Y4786121D02*
G01*
X1955800Y4979923D01*
X1894839Y4786121D02*
G01*
X1894839Y4979923D01*
X1894839Y4786121D02*
G01*
X1765554Y4979923D01*
X1765554Y4786121D02*
G01*
X1765554Y4979923D01*
X1630679Y4786121D02*
G01*
X1704594Y4979923D01*
X1630679Y4786121D02*
G01*
X1556765Y4979923D01*
X1676907Y4915407D02*
G01*
X1584452Y4915407D01*
X1486662Y4832350D02*
G01*
X1486662Y4822952D01*
X1477263Y4804410D01*
X1468120Y4795265D01*
X1449578Y4786121D01*
X1412747Y4786121D01*
X1394205Y4795265D01*
X1385062Y4804410D01*
X1375663Y4822952D01*
X1375663Y4841494D01*
X1385062Y4860036D01*
X1403350Y4887721D01*
X1495805Y4979923D01*
X1366520Y4979923D01*
X1296415Y4832350D02*
G01*
X1296415Y4822952D01*
X1287018Y4804410D01*
X1277873Y4795265D01*
X1259331Y4786121D01*
X1222502Y4786121D01*
X1203960Y4795265D01*
X1194815Y4804410D01*
X1185418Y4822952D01*
X1185418Y4841494D01*
X1194815Y4860036D01*
X1213104Y4887721D01*
X1305560Y4979923D01*
X1176273Y4979923D01*
X1004570Y4813807D02*
G01*
X1013713Y4795265D01*
X1041400Y4786121D01*
X1059942Y4786121D01*
X1087628Y4795265D01*
X1106170Y4822952D01*
X1115313Y4869179D01*
X1115313Y4915407D01*
X1106170Y4952237D01*
X1087628Y4970779D01*
X1059942Y4979923D01*
X1050544Y4979923D01*
X1022857Y4970779D01*
X1004570Y4952237D01*
X995171Y4924552D01*
X995171Y4915407D01*
X1004570Y4887721D01*
X1022857Y4869179D01*
X1050544Y4860036D01*
X1059942Y4860036D01*
X1087628Y4869179D01*
X1106170Y4887721D01*
X1115313Y4915407D01*
G36*
X7848600Y393700D02*
G01*
X7861300Y381000D01*
X7937500Y381000D01*
X7924800Y393700D01*
G37*
G36*
X7048500Y838200D02*
G01*
X7048500Y736600D01*
X7061200Y723900D01*
X7061200Y698500D01*
X7073900Y685800D01*
X7073900Y673100D01*
X7086600Y660400D01*
X7086600Y622300D01*
X7124700Y584200D01*
X7124700Y558800D01*
X7162800Y520700D01*
X7162800Y495300D01*
X7213600Y444500D01*
X7226300Y444500D01*
X7239000Y431800D01*
X7239000Y419100D01*
X7251700Y406400D01*
X7289800Y406400D01*
X7302500Y393700D01*
X7848600Y393700D01*
X7797800Y444500D01*
X7759700Y444500D01*
X7696200Y508000D01*
X7658100Y508000D01*
X7645400Y520700D01*
X7632700Y520700D01*
X7594600Y558800D01*
X7594600Y584200D01*
X7581900Y596900D01*
X7581900Y660400D01*
X7594600Y673100D01*
X7594600Y698500D01*
X7607300Y711200D01*
X7620000Y711200D01*
X7645400Y736600D01*
X7658100Y736600D01*
X7670800Y749300D01*
X7708900Y749300D01*
X7721600Y736600D01*
X7747000Y736600D01*
X7759700Y723900D01*
X8229600Y723900D01*
X8343900Y838200D01*
G37*
G36*
X7246213Y406196D02*
G01*
X7396225Y296164D01*
X7526223Y246176D01*
X7646212Y236169D01*
X7846212Y246176D01*
X8016189Y306171D01*
X8126222Y406196D01*
G37*
G36*
X7696200Y279400D02*
G01*
X7696200Y228600D01*
X7759700Y228600D01*
X7759700Y241300D01*
G37*
G36*
X8343900Y825500D02*
G01*
X7759700Y723900D01*
X7797800Y685800D01*
X7797800Y673100D01*
X7810500Y660400D01*
X7810500Y596900D01*
X7797800Y584200D01*
X7797800Y558800D01*
X7772400Y533400D01*
X7759700Y533400D01*
X7747000Y520700D01*
X7721600Y520700D01*
X7696200Y495300D01*
X7683500Y495300D01*
X7810500Y368300D01*
X7988300Y368300D01*
X8020050Y400050D01*
X8039100Y381000D01*
X8089900Y381000D01*
X8102600Y393700D01*
X8128000Y393700D01*
X8216900Y482600D01*
X8216900Y495300D01*
X8255000Y533400D01*
X8255000Y558800D01*
X8267700Y571500D01*
X8267700Y596900D01*
X8293100Y622300D01*
X8293100Y660400D01*
X8305800Y673100D01*
X8305800Y685800D01*
X8318500Y698500D01*
X8318500Y723900D01*
X8331200Y736600D01*
X8331200Y749300D01*
X8343900Y762000D01*
G37*
G36*
X8280400Y609600D02*
G01*
X8255000Y596900D01*
X8267700Y584200D01*
X8280400Y596900D01*
G37*
G36*
X8305800Y673100D02*
G01*
X8280400Y647700D01*
X8305800Y647700D01*
G37*
G36*
X8318500Y825500D02*
G01*
X8343900Y812800D01*
X8343900Y825500D01*
G37*
D15*
X1485900Y317500D02*
G01*
X1485900Y2654300D01*
X5346700Y2654300D01*
X5346700Y317500D01*
X1485900Y317500D01*
X5321300Y1041400D02*
G01*
X5257800Y977900D01*
X5130800Y977900D01*
X5067300Y1041400D01*
X5067300Y1168400D01*
X5130800Y1231900D01*
X5067300Y1295400D01*
X5067300Y1422400D01*
X5130800Y1485900D01*
X5067300Y1549400D01*
X5067300Y1676400D01*
X5130800Y1739900D01*
X5067300Y1803400D01*
X5067300Y1930400D01*
X5130800Y1993900D01*
X5257800Y1993900D01*
X5321300Y1930400D01*
X5321300Y1803400D01*
X5257800Y1739900D01*
X5321300Y1676400D01*
X5321300Y1549400D01*
X5257800Y1485900D01*
X5321300Y1422400D01*
X5321300Y1295400D01*
X5257800Y1231900D01*
X5321300Y1168400D01*
X5321300Y1041400D01*
X1701800Y977900D02*
G01*
X1765300Y914400D01*
X1765300Y787400D01*
X1701800Y723900D01*
X1574800Y723900D01*
X1511300Y787400D01*
X1511300Y914400D01*
X1574800Y977900D01*
X1511300Y1041400D01*
X1511300Y1168400D01*
X1574800Y1231900D01*
X1511300Y1295400D01*
X1511300Y1422400D01*
X1574800Y1485900D01*
X1511300Y1549400D01*
X1511300Y1676400D01*
X1574800Y1739900D01*
X1511300Y1803400D01*
X1511300Y1930400D01*
X1574800Y1993900D01*
X1511300Y2057400D01*
X1511300Y2184400D01*
X1574800Y2247900D01*
X1701800Y2247900D01*
X1765300Y2184400D01*
X1765300Y2057400D01*
X1701800Y1993900D01*
X1765300Y1930400D01*
X1765300Y1803400D01*
X1701800Y1739900D01*
X1765300Y1676400D01*
X1765300Y1549400D01*
X1701800Y1485900D01*
X1765300Y1422400D01*
X1765300Y1295400D01*
X1701800Y1231900D01*
X1765300Y1168400D01*
X1765300Y1041400D01*
X1701800Y977900D01*
D16*
X10272915Y2868282D02*
G01*
X5072926Y2868282D01*
X5072926Y5658269D01*
X10272915Y5658269D01*
X10272915Y2868282D01*
D14*
X9537700Y1333500D02*
G01*
X9537700Y1524000D01*
X9283700Y1524000D01*
X9283700Y254000D01*
X9537700Y254000D01*
D18*
X9537700Y254000D02*
G01*
X9537700Y1333500D01*
D14*
X9537700Y444500D02*
G01*
X9537700Y254000D01*
X9791700Y254000D01*
X9791700Y1524000D01*
X9537700Y1524000D01*
D18*
X9537700Y1524000D02*
G01*
X9537700Y444500D01*
D14*
X9029700Y444500D02*
G01*
X9029700Y254000D01*
X9283700Y254000D01*
X9283700Y1524000D01*
X9029700Y1524000D01*
D18*
X9029700Y1524000D02*
G01*
X9029700Y444500D01*
D14*
X8737600Y1346200D02*
G01*
X8737600Y1536700D01*
X8483600Y1536700D01*
X8483600Y266700D01*
X8737600Y266700D01*
D18*
X8737600Y266700D02*
G01*
X8737600Y1346200D01*
D14*
X9385300Y6096000D02*
G01*
X9385300Y6096000D01*
X9385300Y5842000D01*
X5575300Y5842000D01*
X5575300Y6096000D01*
X5765800Y6096000D01*
D19*
X9385300Y6096000D02*
G01*
X5765800Y6096000D01*
D14*
X5575300Y2387600D02*
G01*
X5575300Y2387600D01*
X5575300Y2641600D01*
X9385300Y2641600D01*
X9385300Y2387600D01*
X9194800Y2387600D01*
D19*
X5575300Y2387600D02*
G01*
X9194800Y2387600D01*
D16*
X4737100Y6337300D02*
G01*
X4737100Y5287289D01*
X3407105Y5287289D01*
X3407105Y6337300D01*
X4737100Y6337300D01*
X965200Y358698D02*
G01*
X965200Y3584498D01*
X4445000Y3584498D01*
X4445000Y358698D01*
X965200Y358698D01*
X1866900Y1181100D02*
G01*
X3568700Y1181100D01*
X3568700Y393700D01*
X1866900Y393700D01*
X1866900Y1181100D01*
X2794000Y3822700D02*
G01*
X2794000Y5854700D01*
X127000Y5854700D01*
X127000Y3822700D01*
X2794000Y3822700D01*
G75*
G01
X8346211Y876300D02*
G03X8346211Y876300I-650011J0D01*
G75*
G01
X7808341Y626161D02*
G03X7808341Y626161I-112141J0D01*
M02*
