G04 Layer: TopLayer*
G04 EasyEDA v6.5.54, 2026-09-30 14:39:37*
G04 eb17272de7ff421ebd269ce60837b0a6,fdeac84f5221418fb8db622358c4ba40,10*
G04 Gerber Generator version 0.2*
G04 Scale: 100 percent, Rotated: No, Reflected: No *
G04 Dimensions in millimeters *
G04 leading zeros omitted , absolute positions ,4 integer and 5 decimal *
%FSLAX45Y45*%
%MOMM*%

%ADD10R,1.5080X1.5080*%
%ADD11C,1.5080*%
%ADD12C,1.9304*%
%ADD13C,1.8000*%
%ADD14C,1.5748*%
%ADD15C,0.0109*%
%ADD16R,1.5748X1.5748*%
%ADD17C,1.5240*%
%ADD18O,1.999996X1.599997*%
%ADD19O,2.999994X1.999996*%

%LPD*%
D10*
G01*
X1638300Y850900D03*
D11*
G01*
X1638300Y1866900D03*
G01*
X1638300Y1612900D03*
G01*
X1638300Y1358900D03*
G01*
X1638300Y1104900D03*
D10*
G01*
X5194300Y1104900D03*
D11*
G01*
X5194300Y1358900D03*
G01*
X5194300Y1612900D03*
G01*
X5194300Y1866900D03*
G01*
X1638300Y2120900D03*
D12*
G01*
X9259925Y5492292D03*
G01*
X9005925Y5492292D03*
G01*
X8751925Y5492292D03*
G01*
X8497925Y5492292D03*
G01*
X8243925Y5492292D03*
G01*
X7989925Y5492292D03*
G01*
X7735925Y5492292D03*
G01*
X7481925Y5492292D03*
G01*
X7227925Y5492292D03*
G01*
X6973925Y5492292D03*
G01*
X6719925Y5492292D03*
G01*
X6465925Y5492292D03*
G01*
X6211925Y5492292D03*
G01*
X5957925Y5492292D03*
G01*
X5703925Y5492292D03*
G01*
X5703925Y3015284D03*
G01*
X5957925Y3015284D03*
G01*
X6211925Y3015284D03*
G01*
X6465925Y3015284D03*
G01*
X6719925Y3015284D03*
G01*
X6973925Y3015284D03*
G01*
X7227925Y3015284D03*
G01*
X7481925Y3015284D03*
G01*
X7735925Y3015284D03*
G01*
X7989925Y3015284D03*
G01*
X8243925Y3015284D03*
G01*
X8497925Y3015284D03*
G01*
X8751925Y3015284D03*
G01*
X9005925Y3015284D03*
G01*
X9259925Y3015284D03*
D13*
G01*
X7696200Y626160D03*
G01*
X7696200Y1126159D03*
D14*
G01*
X9410700Y381000D03*
G01*
X9410700Y635000D03*
G01*
X9410700Y889000D03*
G01*
X9410700Y1143000D03*
D16*
G01*
X9410700Y1397000D03*
D14*
G01*
X9664700Y1397000D03*
G01*
X9664700Y1143000D03*
G01*
X9664700Y889000D03*
G01*
X9664700Y635000D03*
D16*
G01*
X9664700Y381000D03*
D14*
G01*
X9156700Y1397000D03*
G01*
X9156700Y1143000D03*
G01*
X9156700Y889000D03*
G01*
X9156700Y635000D03*
D16*
G01*
X9156700Y381000D03*
D14*
G01*
X8610600Y393700D03*
G01*
X8610600Y647700D03*
G01*
X8610600Y901700D03*
G01*
X8610600Y1155700D03*
D16*
G01*
X8610600Y1409700D03*
D14*
G01*
X9258300Y5969000D03*
G01*
X9004300Y5969000D03*
G01*
X8750300Y5969000D03*
G01*
X8496300Y5969000D03*
G01*
X8242300Y5969000D03*
G01*
X7988300Y5969000D03*
G01*
X7734300Y5969000D03*
G01*
X7480300Y5969000D03*
G01*
X7226300Y5969000D03*
G01*
X6972300Y5969000D03*
G01*
X6718300Y5969000D03*
G01*
X6464300Y5969000D03*
G01*
X6210300Y5969000D03*
G01*
X5956300Y5969000D03*
D16*
G01*
X5702300Y5969000D03*
D14*
G01*
X5702300Y2514600D03*
G01*
X5956300Y2514600D03*
G01*
X6210300Y2514600D03*
G01*
X6464300Y2514600D03*
G01*
X6718300Y2514600D03*
G01*
X6972300Y2514600D03*
G01*
X7226300Y2514600D03*
G01*
X7480300Y2514600D03*
G01*
X7734300Y2514600D03*
G01*
X7988300Y2514600D03*
G01*
X8242300Y2514600D03*
G01*
X8496300Y2514600D03*
G01*
X8750300Y2514600D03*
G01*
X9004300Y2514600D03*
D16*
G01*
X9258300Y2514600D03*
D17*
G01*
X4521200Y5435600D03*
G01*
X4343400Y5435600D03*
G01*
X4165600Y5435600D03*
G01*
X3987800Y5435600D03*
G01*
X3797300Y5435600D03*
G01*
X3619500Y5435600D03*
G01*
X2324100Y3454400D03*
G01*
X2578100Y3454400D03*
G01*
X2832404Y3454400D03*
G01*
X3086100Y3454400D03*
D18*
G01*
X2641600Y4838700D03*
G01*
X2641600Y4584700D03*
G01*
X2641600Y4330700D03*
G01*
X2641600Y5092700D03*
G01*
X2641600Y5346700D03*
D19*
G01*
X457200Y5092700D03*
G01*
X457200Y4584700D03*
G01*
X457200Y5600700D03*
G01*
X457200Y4076700D03*
D11*
G01*
X1930400Y4013200D03*
G01*
X2324100Y4013200D03*
G01*
X3111500Y2133600D03*
G01*
X2832100Y2184400D03*
G01*
X3086100Y3048000D03*
G01*
X2832100Y3213100D03*
M02*
